<?xml version="1.0" encoding="UTF-8"?>
<svg id="Capa_2" data-name="Capa 2" xmlns="http://www.w3.org/2000/svg" viewBox="0 0 1920 1080">
  <defs>
    <style>
      .cls-1 {
        fill: #d97706;
      }
    </style>
  </defs>
  <path class="cls-1" d="m1920.34,91.65c-138.14.02-188.22.02-193.95,0-.54,0-3.99,0-8.62,0-6.28,0-10.92,0-11.04,0-4.4,0-41.07,2.92-84.59,30.63-28.38,18.07-48.44,39.53-62.03,57.52-4.92,9.46-12.68,22.84-24.08,37.25-19.03,24.05-38.51,38.25-45.94,43.43-6.95,4.85-42.02,28.66-94.55,36.74-34.88,5.37-38.3-2.23-72.27,5.23-10.59,2.32-35.85,8.08-62.24,24.03-25.08,15.16-28.98,26.11-59.47,56.65-37.87,37.93-56.91,56.65-87.88,69.49-27.49,11.4-54.38,13.9-89.29,17.14-22.56,2.1-46.56,2.45-46.56,2.45-7.03.1-12.99.07-17.46,0h0c-.06,0-.12,0-.18,0-.06,0-.12,0-.18,0h0c-4.47.07-10.42.1-17.46,0,0,0-24-.35-46.56-2.45-34.91-3.24-61.8-5.74-89.29-17.14-30.97-12.84-50.01-31.56-87.88-69.49-30.49-30.54-34.39-41.49-59.47-56.65-26.39-15.96-51.65-21.71-62.24-24.03-33.98-7.46-37.39.13-72.27-5.23-52.54-8.08-87.6-31.89-94.55-36.74-7.43-5.18-26.91-19.38-45.94-43.43-11.4-14.41-19.16-27.79-24.08-37.25-13.59-17.99-33.65-39.46-62.03-57.52-43.52-27.71-80.19-30.62-84.59-30.63-.12,0-4.77,0-11.04,0-4.63,0-8.08,0-8.62,0-5.72,0-55.81,0-193.95,0l.48,576.2h-.5v412.16h1920v-412.16h-.14l.48-576.2Z"/>
</svg>