<?xml version="1.0" standalone="no"?>
<!DOCTYPE svg PUBLIC "-//W3C//DTD SVG 20010904//EN"
 "http://www.w3.org/TR/2001/REC-SVG-20010904/DTD/svg10.dtd">
<svg version="1.0" xmlns="http://www.w3.org/2000/svg"
 width="500.000000pt" height="500.000000pt" viewBox="0 0 500.000000 500.000000"
 preserveAspectRatio="xMidYMid meet">

<g transform="translate(0.000000,500.000000) scale(0.100000,-0.100000)"
fill="#000000" stroke="none">
<path d="M1728 4989 c-52 -12 -183 -80 -243 -126 -74 -58 -145 -157 -145 -204
0 -39 -3 -35 185 -307 93 -134 135 -205 135 -226 0 -7 -18 -21 -40 -31 l-40
-18 -97 94 c-114 109 -202 182 -363 300 -202 150 -326 219 -391 219 -70 0 -92
-57 -109 -279 -32 -421 79 -898 265 -1141 51 -67 188 -198 245 -236 39 -26 41
-30 35 -63 -4 -19 -13 -47 -20 -62 -8 -14 -12 -35 -9 -46 7 -24 -27 -51 -110
-88 -30 -13 -57 -29 -60 -34 -16 -26 76 -106 162 -140 40 -17 40 -25 2 -41
-16 -7 -35 -19 -42 -27 -27 -33 115 -122 345 -218 93 -38 184 -64 331 -94 95
-19 123 -30 100 -38 -43 -15 -123 -75 -148 -110 -25 -36 -27 -44 -16 -58 11
-13 29 -16 82 -13 37 1 68 -1 69 -5 0 -4 -9 -32 -20 -63 -23 -60 -26 -108 -11
-150 10 -25 14 -26 54 -21 24 4 45 4 48 2 10 -10 -15 -141 -42 -221 -15 -46
-66 -150 -113 -231 -179 -313 -247 -486 -247 -630 0 -28 -5 -55 -10 -58 -6 -4
-28 11 -49 32 -81 81 -81 191 0 423 l54 155 -1 140 c0 125 -3 148 -27 218 -15
43 -43 104 -63 135 -39 62 -137 161 -196 198 -114 72 -290 99 -453 69 -146
-28 -305 -113 -350 -188 -21 -35 -13 -45 59 -72 65 -24 131 -90 146 -146 17
-62 6 -123 -50 -289 -68 -200 -82 -267 -82 -390 0 -121 28 -229 83 -315 48
-75 136 -156 219 -199 63 -33 71 -40 53 -47 -32 -12 -35 -24 -10 -47 67 -63
236 -103 354 -84 49 8 80 8 107 1 72 -20 167 12 240 80 23 22 40 31 43 24 11
-30 67 -95 101 -118 81 -53 225 -89 403 -101 174 -11 258 18 277 96 7 29 13
35 38 38 25 2 33 -4 56 -43 39 -64 87 -84 201 -85 110 0 169 14 204 50 l28 29
117 -10 c125 -11 212 -2 254 26 45 29 49 118 7 181 -17 26 -92 64 -128 64 -33
0 -32 5 10 51 67 75 105 178 105 290 0 85 -22 147 -72 204 -52 59 -98 81 -173
84 -33 2 -62 4 -64 6 -1 2 6 32 18 67 11 35 37 135 57 223 20 87 42 171 50
186 21 42 55 63 233 150 261 126 329 172 306 209 -4 6 13 31 36 55 99 104 175
236 254 445 44 116 51 128 102 175 55 48 123 164 123 207 0 11 20 31 51 50 72
44 109 98 109 159 0 54 -23 79 -72 79 -33 0 -32 -2 -13 43 22 54 19 85 -14
118 -22 22 -39 29 -66 29 -40 0 -69 -24 -146 -119 l-35 -44 4 96 c4 94 4 96
-23 121 -34 32 -86 34 -132 6 -37 -22 -41 -33 -46 -150 -3 -55 -12 -106 -26
-145 -25 -67 -42 -126 -65 -230 -39 -170 -241 -422 -421 -524 -82 -47 -93 -48
-97 -9 l-3 33 -97 -3 c-55 -2 -98 0 -98 5 0 5 17 17 38 27 105 50 296 190 381
282 104 111 211 267 211 307 0 12 -11 23 -30 30 -37 14 -38 22 -2 41 39 21 74
61 70 83 -2 12 -23 25 -61 38 -57 19 -58 21 -53 50 4 17 9 77 12 135 5 86 10
108 26 123 23 23 18 43 -9 40 -16 -2 -25 11 -47 67 -30 76 -72 141 -119 181
l-29 27 11 95 c14 118 14 352 1 472 -23 201 -78 422 -134 534 -54 108 -100
117 -180 35 -126 -130 -396 -575 -476 -784 -7 -19 -16 -38 -19 -41 -3 -4 -37
-4 -74 0 l-68 6 77 64 c93 78 134 138 134 198 0 40 -3 45 -32 57 -37 16 -75 8
-162 -36 -32 -16 -60 -27 -62 -25 -7 7 -50 192 -83 357 -37 187 -50 245 -63
288 l-10 32 -211 -1 c-117 -1 -229 -5 -249 -10z m1436 -341 c13 -29 28 -75 35
-101 16 -65 43 -245 42 -279 -1 -15 3 -29 9 -33 5 -3 10 -26 10 -49 0 -84 20
-136 33 -86 3 11 2 20 -3 20 -4 0 -1 28 6 63 15 70 18 120 4 77 -6 -20 -8 -14
-9 28 -1 74 16 65 24 -14 10 -90 1 -407 -11 -411 -6 -2 -8 -19 -6 -39 4 -30 2
-35 -13 -32 -20 3 -29 34 -13 45 7 4 8 1 3 -7 -5 -9 -4 -11 4 -6 6 4 9 12 5
17 -3 5 0 16 6 24 17 20 5 19 -14 -1 -9 -9 -16 -11 -16 -4 0 6 -4 9 -9 6 -4
-3 -7 -16 -6 -29 l3 -24 -60 18 c-33 11 -75 19 -94 19 -39 0 -42 11 -15 48 45
65 31 99 -38 88 l-39 -6 14 47 c19 63 19 192 0 199 -20 8 -63 -23 -92 -65 -29
-43 -29 -40 -4 57 53 207 174 482 211 482 6 0 20 -24 33 -52z m-2321 -237 c36
-23 177 -162 232 -226 50 -60 137 -184 195 -280 l42 -69 -36 27 c-78 60 -162
82 -201 54 -41 -31 2 -147 90 -244 l54 -60 -31 -9 c-17 -5 -40 -21 -50 -35
-19 -25 -19 -28 -3 -58 18 -36 65 -68 113 -77 38 -7 38 -7 13 -48 -11 -17 -29
-62 -42 -101 -12 -38 -23 -72 -25 -73 -9 -12 -99 44 -150 94 -152 148 -247
354 -283 614 -13 100 2 424 23 474 17 41 21 42 59 17z m486 -205 c-3 -3 -11 5
-18 17 -13 21 -12 21 5 5 10 -10 16 -20 13 -22z m61 -2 c0 -8 -19 -13 -24 -6
-3 5 1 9 9 9 8 0 15 -2 15 -3z m1617 -9 c0 -8 -4 -12 -9 -9 -5 3 -6 10 -3 15
9 13 12 11 12 -6z m-1534 -64 c53 -51 57 -58 36 -57 -13 0 -24 -3 -24 -9 0 -5
6 -9 12 -9 7 1 10 -2 7 -7 -15 -25 -47 3 -48 42 -1 19 -7 34 -13 34 -6 0 -15
4 -20 9 -5 6 -2 6 6 1 11 -6 13 -4 8 9 -4 10 -7 21 -7 24 0 4 -5 0 -10 -8 -8
-13 -10 -13 -10 2 0 9 -6 19 -12 21 -10 4 -10 6 0 6 8 1 41 -25 75 -58z m-75
11 c2 -7 0 -12 -5 -11 -20 3 -27 -2 -13 -11 13 -8 12 -10 -2 -10 -16 0 -18 8
-9 48 2 8 25 -5 29 -16z m30 -61 c11 -7 11 -9 -1 -14 -16 -6 -27 0 -27 15 0
10 11 10 28 -1z m132 -43 c9 -20 9 -21 -2 -7 -7 9 -20 18 -28 22 -12 4 -12 6
2 6 10 1 22 -9 28 -21z m-94 -14 c-3 -9 -6 -20 -6 -25 0 -6 -5 -7 -10 -4 -8 5
-8 11 -1 19 6 7 8 16 4 19 -3 4 -1 7 6 7 8 0 11 -6 7 -16z m35 -21 c-8 -15
-10 -15 -11 -2 0 17 10 32 18 25 2 -3 -1 -13 -7 -23z m45 0 c2 -10 -2 -23 -7
-30 -6 -7 -8 -16 -6 -20 3 -5 -6 -9 -21 -10 -15 0 -20 1 -12 3 24 7 43 43 31
58 -6 7 -8 16 -4 19 8 9 16 1 19 -20z m1044 0 c103 -17 207 -46 255 -71 17 -9
32 -17 35 -17 28 -5 50 -19 50 -32 0 -9 6 -13 14 -10 8 3 20 -1 28 -10 12 -14
9 -15 -27 -9 -25 4 -35 3 -27 -2 11 -7 10 -11 -3 -16 -11 -4 -23 2 -36 18 -25
31 -68 48 -115 44 -28 -2 -40 -8 -42 -22 -5 -25 8 -35 51 -38 20 -2 37 -7 37
-13 0 -5 4 -4 8 3 5 7 16 10 25 6 18 -7 23 -24 7 -24 -5 0 -37 -26 -69 -59
-46 -44 -63 -56 -72 -47 -9 8 -9 6 0 -6 16 -21 0 -47 -28 -49 -9 0 -11 -3 -5
-5 8 -3 5 -22 -7 -61 -11 -31 -19 -62 -19 -69 0 -7 -4 -16 -10 -19 -6 -4 -7 1
-4 12 5 17 5 17 -9 1 -19 -24 -30 -23 -22 2 9 27 -10 25 -29 -2 -12 -17 -16
-18 -16 -6 0 8 7 21 15 28 9 7 13 15 10 18 -2 3 -16 -7 -30 -22 -14 -15 -25
-23 -25 -17 0 5 -11 8 -25 5 -14 -2 -25 0 -25 5 0 6 9 8 20 6 17 -3 19 0 16
21 -3 13 0 24 6 24 5 0 8 -6 5 -13 -3 -8 1 -14 8 -14 11 0 12 5 2 21 -6 12
-10 24 -9 29 1 4 -2 7 -8 7 -5 0 -10 -4 -10 -10 0 -5 -7 -10 -15 -10 -16 0
-16 -20 0 -32 6 -5 6 -8 -2 -8 -6 0 -18 9 -26 20 -12 18 -15 18 -20 6 -4 -9
-1 -15 6 -13 7 1 13 -10 14 -28 1 -20 0 -23 -4 -7 -5 23 -23 31 -23 10 -1 -7
-7 -2 -16 12 l-15 25 6 -25 c17 -67 17 -66 6 -50 -12 18 -31 20 -50 6 -11 -8
-13 -8 -7 2 4 6 2 12 -3 12 -6 0 -11 -5 -11 -10 0 -6 -12 1 -27 15 -32 30 -95
74 -135 94 -15 8 -25 18 -22 22 3 5 -1 6 -9 3 -7 -2 -27 0 -43 7 -28 11 -41
13 -136 17 -38 2 -46 5 -42 17 4 8 17 18 30 21 13 3 24 10 24 15 0 5 6 9 14 9
23 0 29 20 13 38 -8 9 -12 23 -10 30 3 6 0 12 -7 12 -6 0 -8 -4 -5 -10 9 -14
-18 -12 -34 3 -8 6 -11 7 -8 1 8 -14 -38 -35 -60 -27 -11 5 -14 3 -8 -6 6 -10
3 -11 -12 -2 -11 6 -23 7 -27 4 -3 -3 -6 -1 -6 5 0 6 -6 12 -12 15 -7 2 -6 3
2 2 8 -2 24 -6 34 -11 13 -5 17 -4 13 3 -10 15 13 22 41 12 18 -7 22 -5 22 12
0 11 -4 17 -10 14 -5 -3 -10 1 -10 9 0 8 -10 17 -22 19 -13 3 -7 4 12 4 19 -1
40 -8 46 -16 9 -12 12 -8 16 17 4 32 -1 37 -32 32 -8 -1 -12 1 -8 6 5 4 22 8
38 9 24 1 30 -2 25 -13 -4 -12 -3 -12 9 -3 8 6 18 11 22 10 25 -4 35 3 34 24
-3 35 -1 47 9 47 5 0 7 -10 5 -22 -5 -23 -5 -23 5 -1 5 12 25 27 44 34 19 7
34 17 33 23 -2 6 -1 8 1 4 3 -5 21 -8 41 -8 33 0 35 1 16 14 -17 13 -2 15 131
15 90 0 188 -6 245 -16z m-1101 -38 c0 -5 -4 -3 -9 5 -5 8 -9 22 -9 30 0 16
17 -16 18 -35z m107 33 c4 -7 4 -10 -1 -6 -4 4 -15 2 -24 -5 -14 -11 -14 -10
-2 6 16 20 18 21 27 5z m-6 -38 c0 -5 -2 -10 -4 -10 -3 0 -8 5 -11 10 -3 6 -1
10 4 10 6 0 11 -4 11 -10z m1490 -4 c0 -22 -18 -39 -34 -33 -19 8 -21 -4 -3
-23 10 -12 9 -12 -6 -1 -18 14 -15 49 5 62 15 9 38 6 38 -5z m-1037 -36 c5
-18 1 -20 -30 -18 -43 3 -55 18 -14 18 17 0 31 5 31 10 0 17 7 11 13 -10z
m-493 6 c0 -3 -4 -8 -10 -11 -5 -3 -10 -1 -10 4 0 6 5 11 10 11 6 0 10 -2 10
-4z m1480 -48 c0 -6 -6 -5 -15 2 -8 7 -15 14 -15 16 0 2 7 1 15 -2 8 -4 15
-11 15 -16z m-1305 -18 c3 -5 1 -10 -4 -10 -6 0 -11 5 -11 10 0 6 2 10 4 10 3
0 8 -4 11 -10z m106 -22 c0 -10 2 -10 6 0 2 6 9 12 15 12 6 0 6 -6 -2 -15 -7
-8 -16 -15 -20 -15 -4 0 -10 7 -14 15 -3 8 -1 15 4 15 6 0 10 -6 11 -12z
m-560 -11 c-1 -12 -15 -9 -19 4 -3 6 1 10 8 8 6 -3 11 -8 11 -12z m489 -7 c0
-5 -5 -10 -11 -10 -5 0 -7 5 -4 10 3 6 8 10 11 10 2 0 4 -4 4 -10z m147 -6
c-3 -3 -12 -4 -19 -1 -8 3 -5 6 6 6 11 1 17 -2 13 -5z m1238 -29 c125 -33 249
-147 286 -263 44 -137 33 -305 -27 -408 -53 -94 -176 -164 -284 -164 -94 0
-108 6 -132 57 -12 25 -27 47 -34 50 -7 3 -18 20 -24 38 -12 36 -67 70 -98 61
-22 -7 -33 0 -70 52 -20 28 -37 70 -48 120 -30 134 3 260 96 365 84 95 201
127 335 92z m-1348 -1 c-3 -3 -12 -4 -19 -1 -8 3 -5 6 6 6 11 1 17 -2 13 -5z
m-97 -20 c0 -8 -5 -12 -10 -9 -6 4 -8 11 -5 16 9 14 15 11 15 -7z m24 -29 c-4
-8 -8 -15 -10 -15 -2 0 -4 7 -4 15 0 8 4 15 10 15 5 0 7 -7 4 -15z m129 -7
c-18 -20 -29 -17 -20 5 3 7 12 14 21 14 15 0 14 -2 -1 -19z m-83 -19 c0 -8 5
-8 15 1 9 7 15 8 15 2 0 -17 -28 -22 -40 -6 -9 10 -9 14 -1 14 6 0 11 -5 11
-11z m-60 -31 c0 -16 -3 -19 -11 -11 -6 6 -8 16 -5 22 11 17 16 13 16 -11z
m40 12 c0 -5 -5 -10 -11 -10 -5 0 -7 5 -4 10 3 6 8 10 11 10 2 0 4 -4 4 -10z
m170 -10 c-6 -4 -11 -11 -9 -16 4 -14 -32 -17 -45 -4 -8 10 -5 11 14 5 21 -7
23 -6 12 7 -10 13 -8 16 14 16 15 0 21 -4 14 -8z m-81 -31 c-15 -9 -32 -2 -24
11 3 5 13 6 21 3 12 -4 13 -8 3 -14z m-149 -7 c0 -4 -10 -9 -22 -9 -18 -2 -20
0 -8 7 18 12 30 13 30 2z m30 -16 c0 -2 -6 -9 -14 -15 -11 -9 -16 -9 -22 0 -4
7 -3 9 4 5 6 -3 13 -2 17 4 6 10 15 14 15 6z m377 -52 c96 -33 194 -121 243
-217 135 -269 -15 -571 -307 -618 -235 -38 -454 139 -470 381 -7 90 9 185 39
244 45 88 157 182 251 211 60 19 186 18 244 -1z m-427 -17 c0 -2 -15 -18 -33
-35 -22 -21 -34 -28 -34 -18 0 8 5 12 10 9 6 -4 8 1 4 11 -4 10 -3 15 3 11 6
-4 17 1 26 9 14 15 24 20 24 13z m735 -77 c-3 -5 0 -10 7 -10 8 0 6 -5 -5 -11
-10 -6 -25 -8 -33 -5 -16 6 -19 26 -3 26 5 0 7 -4 4 -10 -3 -5 1 -10 9 -10 10
0 13 6 10 15 -4 8 -1 15 6 15 6 0 8 -4 5 -10z m233 -47 c-1 -48 -1 -48 -5 -8
-3 22 -10 43 -16 47 -8 5 -6 8 6 8 14 0 17 -8 15 -47z m-171 -295 c-3 -7 -5
-2 -5 12 0 14 2 19 5 13 2 -7 2 -19 0 -25z m233 -2 c0 -2 -8 -10 -17 -17 -16
-13 -17 -12 -4 4 13 16 21 21 21 13z m-182 -52 c4 2 30 6 57 10 33 3 43 2 30
-4 -11 -5 -18 -9 -15 -10 27 -8 41 -6 50 8 6 12 8 7 4 -19 -8 -51 30 -93 104
-116 31 -9 61 -20 66 -24 27 -23 -36 -124 -96 -155 -71 -37 -201 -11 -269 53
-25 23 -27 24 -44 6 -16 -16 -16 -18 -3 -21 10 -2 17 -18 21 -48 6 -55 54
-155 101 -210 42 -49 104 -78 138 -65 53 21 105 111 138 239 9 35 15 42 36 42
60 0 140 59 151 112 5 25 8 26 37 20 17 -4 67 -7 111 -6 95 0 146 22 252 105
38 30 62 46 55 37 -8 -10 -10 -23 -6 -29 5 -8 3 -9 -6 -4 -18 11 -4 -46 16
-61 7 -6 14 -17 14 -25 1 -10 4 -9 11 4 12 21 35 22 43 1 3 -8 10 -13 16 -9 5
3 2 -8 -8 -24 -9 -17 -20 -31 -25 -31 -4 0 0 11 8 24 11 16 13 26 6 31 -6 3
-11 -2 -11 -12 0 -15 -2 -16 -11 -3 -9 12 -10 12 -5 -3 7 -21 -9 -57 -26 -57
-7 0 -6 5 2 15 7 9 11 17 9 19 -2 2 -12 -7 -22 -20 -11 -15 -14 -24 -6 -24 7
0 2 -9 -10 -19 -24 -21 -25 -29 -10 -48 7 -7 6 -14 -1 -18 -6 -4 -9 -1 -8 7 2
7 -3 13 -11 13 -17 0 -34 -42 -20 -50 5 -4 -12 -29 -38 -57 -99 -104 -285
-238 -440 -317 -99 -49 -93 -53 71 -49 80 1 146 1 146 -2 0 -14 -36 -54 -73
-81 -26 -19 -52 -29 -76 -29 l-36 0 55 -30 c68 -37 133 -105 147 -156 18 -61
26 -134 16 -134 -6 0 -36 17 -69 38 -92 59 -87 57 -75 34 6 -11 17 -48 25 -82
13 -54 13 -72 0 -138 -13 -69 -65 -202 -78 -202 -3 0 -19 25 -34 57 l-29 56
-5 -60 c-7 -78 -49 -165 -111 -230 -48 -51 -67 -58 -67 -26 0 23 -114 256
-134 272 -16 13 -17 12 -12 -10 16 -77 17 -99 3 -99 -15 0 -159 91 -196 124
-13 11 -41 46 -61 78 l-37 56 5 -74 c3 -53 1 -74 -7 -74 -27 0 -90 41 -130 85
-63 69 -85 124 -78 203 l5 64 -32 -30 c-31 -30 -173 -122 -188 -122 -13 0 -9
93 7 147 10 32 27 62 48 80 62 56 63 62 3 42 -30 -10 -87 -22 -127 -25 l-73
-7 33 41 c36 46 65 69 131 102 44 23 74 28 154 29 65 1 29 19 -59 31 -145 19
-280 51 -295 70 -3 4 -14 12 -25 19 -18 11 -17 12 10 6 20 -4 25 -3 16 4 -15
10 -7 31 13 31 7 0 13 7 13 15 0 9 -6 14 -14 11 -7 -3 -12 -1 -10 4 3 11 -109
71 -117 63 -3 -4 -6 3 -6 15 0 12 -5 22 -11 22 -5 0 -8 4 -5 8 3 5 -6 20 -19
34 -13 14 -23 28 -22 30 1 2 -4 -3 -11 -12 -11 -12 -12 -11 -10 10 2 14 9 30
17 36 8 6 11 16 7 23 -6 9 -11 9 -22 0 -8 -6 -17 -9 -21 -5 -4 3 2 12 11 19
14 11 16 18 9 33 -6 10 -8 25 -6 32 3 6 0 12 -6 12 -6 0 -11 -5 -11 -12 0 -6
-3 -8 -7 -4 -4 4 6 18 22 33 29 25 29 25 5 18 -23 -7 -22 -6 8 19 17 16 29 33
26 39 -5 8 -4 9 4 2 5 -5 12 -19 15 -30 3 -13 5 -8 6 13 1 20 5 31 11 27 6 -4
7 -12 3 -18 -4 -7 1 -6 11 2 13 11 16 11 14 1 -4 -15 49 -32 75 -24 18 6 18 6
0 26 -10 12 4 4 31 -16 155 -117 338 -138 503 -59 73 36 168 116 198 167 31
53 75 163 75 188 0 10 5 18 10 18 6 0 10 -10 10 -21 0 -18 2 -19 15 -9 8 7 15
20 16 29 0 10 2 12 6 3 2 -6 8 -10 11 -8z m449 -131 c6 -85 -35 -142 -112
-157 -37 -7 -63 7 -48 26 6 7 16 36 22 64 9 37 21 57 41 73 17 12 37 35 46 52
14 29 17 30 32 16 9 -10 17 -39 19 -74z m523 -117 c0 -2 -8 -10 -17 -17 -16
-13 -17 -12 -4 4 13 16 21 21 21 13z m-2354 -58 c4 -7 4 -10 -1 -6 -4 4 -17 3
-29 -3 -20 -10 -20 -10 -2 5 24 19 23 19 32 4z m341 -4 c-3 -3 -12 -4 -19 -1
-8 3 -5 6 6 6 11 1 17 -2 13 -5z m-395 -43 c-3 -9 -1 -12 6 -7 6 3 14 1 18 -5
4 -7 3 -9 -3 -6 -6 4 -13 1 -16 -7 -4 -9 -14 -12 -28 -9 -17 5 -20 3 -13 -8 4
-8 -6 -3 -23 11 l-31 25 27 12 c36 16 70 13 63 -6z m92 -27 c3 -8 2 -12 -4 -9
-6 3 -10 10 -10 16 0 14 7 11 14 -7z m-54 -14 c-12 -8 -10 -10 10 -11 14 0 19
-3 12 -6 -18 -7 -44 5 -37 17 3 5 12 10 18 10 7 0 6 -4 -3 -10z m350 -50 c0
-13 -39 -7 -44 7 -4 11 -2 14 9 9 8 -3 15 0 15 7 0 11 19 -11 20 -23z m1123
-84 c-4 -5 1 -7 11 -3 14 5 17 3 12 -8 -6 -17 9 -21 19 -5 3 5 17 9 30 8 32
-3 16 -19 -22 -24 -19 -2 -39 5 -57 19 -25 20 -26 23 -8 23 11 0 18 -5 15 -10z
m-1445 -40 c-7 -8 -17 -12 -22 -9 -4 3 -2 9 5 14 22 13 31 11 17 -5z m26 -27
c-3 -5 -10 -7 -15 -3 -5 3 -7 10 -3 15 3 5 10 7 15 3 5 -3 7 -10 3 -15z m-74
-539 c239 -95 361 -269 385 -550 4 -50 3 -70 -3 -61 -8 11 -11 10 -14 -5 -2
-12 -9 -1 -16 29 -7 26 -17 45 -22 42 -5 -3 -12 0 -16 6 -4 7 -3 9 4 5 6 -3
13 -2 17 4 3 5 -3 10 -15 10 -12 0 -28 -12 -40 -32 -10 -18 -23 -38 -28 -44
-5 -6 -13 -21 -17 -35 -4 -13 -15 -30 -24 -37 -9 -8 -10 -11 -3 -7 6 3 12 1
12 -4 0 -6 -5 -11 -11 -11 -5 0 -7 -5 -4 -10 4 -7 -7 -8 -34 -4 -28 5 -46 2
-57 -7 -16 -13 -16 -12 -1 18 21 39 22 53 2 27 -14 -18 -14 -18 -8 4 3 13 1
22 -6 22 -6 0 -11 5 -11 11 0 6 7 9 14 6 10 -4 13 -1 9 9 -3 8 -13 12 -22 9
-12 -4 -17 1 -17 18 0 12 5 26 10 30 7 5 6 7 -4 5 -8 -3 -15 -18 -16 -35 -1
-16 -8 -41 -15 -54 -7 -13 -12 -28 -11 -32 1 -5 -2 -5 -8 -2 -6 4 -9 13 -6 21
4 10 -2 14 -19 14 -22 0 -23 -3 -20 -39 3 -31 0 -39 -11 -34 -18 7 -18 -4 1
-23 8 -8 12 -21 9 -29 -7 -16 -32 -27 -45 -19 -11 6 -12 24 -1 23 18 -3 32 2
32 12 0 5 -5 7 -10 4 -6 -4 -17 -2 -25 5 -10 8 -15 8 -21 -1 -4 -8 -3 -9 4 -5
14 8 15 -3 3 -23 -10 -16 -3 -44 8 -36 4 2 8 -2 8 -9 0 -7 -6 -13 -12 -13 -11
0 -15 11 -16 50 0 24 -18 21 -28 -5 -6 -16 -4 -28 5 -39 12 -13 12 -16 -1 -16
-8 0 -12 3 -10 6 9 15 -23 40 -46 36 -20 -4 -22 -2 -9 8 8 7 16 18 18 26 3 12
0 12 -12 1 -11 -8 -16 -9 -16 -1 0 16 -36 14 -54 -4 -8 -8 -20 -13 -28 -12 -7
2 -10 2 -6 0 4 -3 2 -10 -5 -18 -7 -7 -16 -10 -21 -7 -5 3 -7 -5 -4 -16 4 -12
3 -20 -2 -17 -11 7 -22 -24 -13 -37 3 -6 1 -8 -5 -4 -6 4 -12 -3 -14 -16 -3
-21 -5 -20 -18 10 -8 17 -18 32 -22 32 -5 0 -8 15 -8 34 0 18 -7 39 -15 46 -8
7 -15 9 -15 4 0 -5 -5 -2 -10 6 -6 10 -10 11 -10 3 0 -7 -7 -13 -15 -13 -8 0
-14 -3 -13 -7 1 -5 -4 -21 -10 -36 -7 -16 -12 -32 -12 -37 0 -5 -5 -12 -12
-16 -7 -4 -8 -3 -4 4 4 7 2 12 -4 12 -24 0 -4 139 33 235 60 155 58 263 -5
339 -34 42 -122 96 -155 96 -36 0 -28 15 34 65 56 46 149 98 208 118 103 33
308 32 395 -3z m1860 -470 c17 9 18 7 10 -19 -5 -19 -4 -33 3 -41 9 -10 9 -11
0 -6 -8 4 -16 -8 -23 -36 -6 -24 -16 -58 -21 -76 -6 -18 -8 -40 -5 -48 4 -10
2 -13 -6 -8 -8 5 -9 2 -5 -9 4 -10 2 -17 -4 -17 -6 0 -9 -6 -6 -14 3 -7 -1
-26 -9 -42 -8 -15 -13 -33 -10 -41 3 -7 1 -15 -4 -18 -13 -8 -42 -114 -34
-127 4 -6 3 -8 -3 -5 -6 4 -15 -18 -23 -51 -19 -90 -69 -238 -98 -295 l-26
-52 -19 120 c-20 132 -36 662 -19 651 5 -3 17 -26 26 -51 12 -30 24 -45 36
-45 42 0 189 189 191 246 0 17 1 17 16 -3 12 -18 19 -20 33 -13z m57 -2 c-3
-8 -6 -5 -6 6 -1 11 2 17 5 13 3 -3 4 -12 1 -19z m-690 -290 c2 -17 0 -19 -7
-8 -5 8 -6 18 -4 22 8 12 10 10 11 -14z m814 -190 c5 1 9 -5 9 -14 0 -9 5 -12
12 -8 7 5 8 3 4 -5 -6 -9 -13 -8 -29 6 -27 22 -37 35 -37 48 1 6 8 1 16 -10 8
-11 20 -19 25 -17z m48 -62 c0 -5 5 -12 12 -17 8 -4 11 -10 8 -14 -3 -3 -17 4
-31 15 -14 10 -28 17 -31 14 -3 -3 -7 -1 -10 3 -3 5 7 9 24 9 16 -1 29 -5 28
-10z m-1249 -20 c0 -2 -7 -7 -16 -10 -8 -3 -12 -2 -9 4 6 10 25 14 25 6z m90
-11 c0 -8 -7 -15 -15 -15 -13 0 -14 3 -3 15 16 18 18 18 18 0z m-56 -1 c9 -3
16 -15 16 -25 0 -13 5 -17 17 -12 11 4 14 3 9 -6 -5 -7 -16 -9 -28 -5 -11 3
-18 2 -15 -3 3 -4 -1 -17 -10 -28 -15 -20 -15 -20 -13 0 3 32 0 41 -9 26 -6
-9 -11 -10 -15 -3 -4 6 3 16 15 22 17 9 20 9 14 0 -5 -8 -3 -11 6 -8 8 3 14
11 14 19 0 15 -16 16 -50 4 -13 -4 -12 -1 5 9 30 18 25 17 44 10z m86 -29 c0
-8 -2 -15 -4 -15 -2 0 -6 7 -10 15 -3 8 -1 15 4 15 6 0 10 -7 10 -15z m1160 0
c0 -8 -2 -15 -4 -15 -2 0 -6 7 -10 15 -3 8 -1 15 4 15 6 0 10 -7 10 -15z
m-1133 -47 c-3 -7 -5 -2 -5 12 0 14 2 19 5 13 2 -7 2 -19 0 -25z m-110 -40
c-3 -7 -5 -2 -5 12 0 14 2 19 5 13 2 -7 2 -19 0 -25z m50 16 c-3 -3 -12 -4
-19 -1 -8 3 -5 6 6 6 11 1 17 -2 13 -5z m19 -76 c4 -7 4 -10 -1 -6 -4 4 -15 2
-24 -5 -14 -11 -14 -10 -2 6 16 20 18 21 27 5z m286 -287 c-3 -8 -1 -12 5 -8
6 4 13 -1 16 -11 2 -9 8 -26 12 -37 6 -16 5 -17 -4 -5 -9 12 -10 8 -6 -17 5
-32 -7 -44 -20 -23 -12 19 -84 60 -105 60 -24 0 -24 -3 0 47 11 22 22 59 26
82 4 23 10 44 14 46 5 3 6 15 4 28 -3 12 11 -16 30 -62 19 -47 31 -91 28 -100z
m52 -97 c10 -25 -1 -29 -14 -5 -6 12 -7 21 -1 21 5 0 12 -7 15 -16z"/>
<path d="M3270 3989 c0 -5 5 -7 10 -4 6 3 10 8 10 11 0 2 -4 4 -10 4 -5 0 -10
-5 -10 -11z"/>
<path d="M3260 3934 c0 -16 5 -36 10 -44 7 -11 9 -4 6 24 -6 47 -16 60 -16 20z"/>
<path d="M1465 4120 c15 -17 16 -22 4 -37 -13 -16 -12 -17 3 -5 9 8 23 10 30
6 7 -4 0 7 -16 24 -17 18 -32 32 -34 32 -3 0 3 -9 13 -20z"/>
<path d="M2140 3966 c0 -2 7 -7 16 -10 8 -3 12 -2 9 4 -6 10 -25 14 -25 6z"/>
<path d="M1897 3779 c7 -7 15 -10 18 -7 3 3 -2 9 -12 12 -14 6 -15 5 -6 -5z"/>
<path d="M2021 3719 c-13 -10 -19 -19 -15 -19 13 1 48 29 43 34 -2 2 -15 -4
-28 -15z"/>
<path d="M2258 3603 c7 -3 16 -2 19 1 4 3 -2 6 -13 5 -11 0 -14 -3 -6 -6z"/>
<path d="M2276 3575 c11 -8 24 -15 30 -15 7 0 11 -8 10 -17 0 -10 5 -17 12
-15 6 1 12 -3 12 -9 0 -8 6 -7 17 2 9 8 18 13 20 12 1 -2 3 -1 3 2 0 3 0 12 0
20 0 8 -5 15 -11 15 -5 0 -7 -5 -3 -12 5 -8 2 -9 -11 -4 -15 5 -16 4 -5 -9 9
-11 9 -15 1 -15 -7 0 -17 12 -24 28 -9 19 -20 28 -41 29 -27 2 -27 1 -10 -12z"/>
<path d="M2640 3570 c-6 -11 -8 -20 -6 -20 3 0 10 9 16 20 6 11 8 20 6 20 -3
0 -10 -9 -16 -20z"/>
<path d="M3040 3940 c0 -5 5 -10 11 -10 5 0 7 5 4 10 -3 6 -8 10 -11 10 -2 0
-4 -4 -4 -10z"/>
<path d="M2853 3515 c-33 -23 -46 -78 -40 -163 7 -90 39 -160 83 -181 16 -8
38 -19 49 -24 19 -9 19 -9 3 10 -10 11 -18 26 -18 34 0 8 8 4 19 -11 17 -22
19 -22 18 -5 -1 12 3 19 12 17 17 -4 43 17 35 29 -3 5 0 8 8 7 33 -7 13 147
-29 219 -45 76 -94 100 -140 68z m106 -81 c21 -27 29 -74 12 -74 -23 0 -43 15
-57 42 -29 55 7 80 45 32z"/>
<path d="M1960 3416 c-92 -51 -130 -232 -72 -347 82 -162 288 -158 342 7 19
57 9 170 -22 236 -37 80 -91 118 -167 118 -31 -1 -67 -7 -81 -14z m158 -86
c28 -26 29 -75 3 -90 -28 -14 -47 -4 -66 36 -29 61 15 98 63 54z"/>
<path d="M1500 2745 c0 -8 4 -15 10 -15 5 0 7 7 4 15 -4 8 -8 15 -10 15 -2 0
-4 -7 -4 -15z"/>
<path d="M1024 2711 c5 -8 56 -3 56 5 0 2 -14 4 -31 4 -16 0 -28 -4 -25 -9z"/>
<path d="M1104 1348 c-8 -12 24 -40 37 -32 5 3 9 13 9 22 0 14 -2 14 -9 3 -5
-7 -14 -10 -20 -7 -6 4 -9 12 -6 17 4 5 4 9 1 9 -3 0 -8 -5 -12 -12z"/>
<path d="M1056 1274 c-9 -24 -7 -27 9 -10 17 17 19 26 6 26 -5 0 -12 -7 -15
-16z"/>
<path d="M880 1225 c0 -2 9 -9 20 -15 16 -9 20 -8 20 5 0 8 -9 15 -20 15 -11
0 -20 -2 -20 -5z"/>
<path d="M2293 521 c0 -11 5 -18 9 -15 4 3 5 11 1 19 -7 21 -12 19 -10 -4z"/>
<path d="M2290 486 c0 -2 7 -7 16 -10 8 -3 12 -2 9 4 -6 10 -25 14 -25 6z"/>
<path d="M2270 471 c0 -7 -5 -9 -12 -5 -7 5 -8 3 -3 -5 5 -9 10 -10 18 -2 6 6
8 14 4 18 -4 3 -7 1 -7 -6z"/>
<path d="M2284 447 c-8 -9 -7 -16 2 -25 7 -7 12 -18 10 -25 -1 -6 -1 -9 1 -4
3 4 9 5 14 2 5 -4 6 2 2 12 -6 16 -5 16 10 4 11 -9 17 -10 17 -2 0 6 -4 12
-10 12 -5 1 -14 2 -20 3 -5 0 -9 6 -7 11 1 6 5 9 10 8 4 -2 7 2 7 7 0 14 -23
12 -36 -3z"/>
<path d="M2243 435 c0 -8 4 -12 9 -9 5 3 6 10 3 15 -9 13 -12 11 -12 -6z"/>
<path d="M2325 360 c21 -24 26 -25 19 -6 -3 8 -13 17 -22 21 -13 5 -13 2 3
-15z"/>
</g>
</svg>
