<?xml version="1.0" encoding="UTF-8"?>
<svg id="FELIZ" xmlns="http://www.w3.org/2000/svg" viewBox="0 0 2160 2260.11">
  <defs>
    <style>
      .cls-1, .cls-2, .cls-3, .cls-4 {
        fill: #fff;
      }

      .cls-5 {
        fill: #e5e5e5;
      }

      .cls-5, .cls-6, .cls-7, .cls-3, .cls-8, .cls-9, .cls-10 {
        stroke-miterlimit: 10;
      }

      .cls-5, .cls-7 {
        stroke: #1d1d1b;
      }

      .cls-5, .cls-8 {
        stroke-width: 25px;
      }

      .cls-2 {
        opacity: .5;
      }

      .cls-11 {
        fill: #1c1c1c;
      }

      .cls-12 {
        fill: #ff7a35;
      }

      .cls-13 {
        fill: #ffd69f;
      }

      .cls-6 {
        fill: #d13b3b;
        stroke-width: 11px;
      }

      .cls-6, .cls-3, .cls-8 {
        stroke: #000;
      }

      .cls-7 {
        stroke-width: 60px;
      }

      .cls-7, .cls-8, .cls-10 {
        fill: none;
      }

      .cls-3 {
        stroke-width: 10px;
      }

      .cls-4 {
        opacity: .25;
      }

      .cls-9 {
        fill: #d3661c;
        stroke: #0a0a0a;
      }

      .cls-9, .cls-10 {
        stroke-width: 40px;
      }

      .cls-10 {
        stroke: #021411;
      }

      .cls-14 {
        fill: #3a1919;
      }

      .cls-15 {
        fill: #1d1d1b;
      }
    </style>
  </defs>
  <path class="cls-9" d="m1711.88,1511.23c15.16,51.16,21.98,78.67,40.04,106.84,20.12,31.38,43.44,52.67,60.41,65.92-15.64,24.4-38.98,58.91-70.02,98.14-49.87,63.05-157.82,196.76-342.92,296.8-67.28,36.36-173.9,84.02-315.68,108.19-86.81-21.53-195.02-58.02-309.87-122.11-217.52-121.38-350.92-281.49-422.14-383.02,13.97-8.4,34.02-22.39,53.11-44.24,10.82-12.39,38.03-46.41,62.18-155.6,7.58-34.28,16.03-81.26,20.38-138.17-75.34-153.1-150.68-306.2-226.02-459.3,104.85-250.69,209.71-501.37,314.56-752.06,90.12,143.97,180.24,287.94,270.36,431.92,17.78,43.03,37.78,104.22,46.27,179.79,9,80.14,1.82,147.71-6.9,194.99,36.63-17.21,105.71-43.83,196.11-44.16,92.25-.33,162.68,26.87,199.48,44.16-6.4-44.37-10.42-99.03-6.52-161.21,5.46-86.92,24.55-158.94,43.05-211.56,92.86-148.34,185.72-296.69,278.57-445.03,102.12,255.06,204.24,510.12,306.35,765.18-73.9,152.43-147.81,304.86-221.71,457.3,3.63,46.57,12.12,103.82,30.91,167.24Z"/>
  <path class="cls-13" d="m1614.61,1707.49c-92.55,29.35-112.6,83.16-203.63,95.68-40.8,5.61-50.29-3.34-140.45-11.93-79.85-7.6-145.03-7.49-187.1-6.26-42.07-1.23-107.25-1.34-187.1,6.26-90.17,8.58-99.65,17.54-140.45,11.93-91.03-12.52-111.08-66.33-203.63-95.68-38.8-12.3-97.14-22.47-176.94-7.35,30.76,42.36,74.99,98.15,134.25,157.96,55.97,56.49,138.14,137.94,266.54,206.91,65.86,35.37,169.49,81.2,306.69,103.92,137.93-22.54,242.01-68.53,307.95-103.92,128.3-68.87,210.42-150.27,266.54-206.91,59.26-59.81,103.5-115.6,134.25-157.96-79.8-15.11-138.14-4.95-176.94,7.35Z"/>
  <path class="cls-1" d="m1481.04,1592.57c-11.36,27.51-30.21,73.19-78.11,96.21-10.32,4.96-42.91,20.03-82.33,10.16-41.43-10.37-63.25-41.08-69.7-50.17-9.94-13.98-14.89-27.09-22.71-47.75-4.07-10.75-9.89-27.96-15.14-53.07-5.76-27.52-12.61-60.31-9.93-98.47,2.38-33.84,5.28-74.99,35.56-110.56,26.69-31.35,73.62-57.17,123.76-49.41,38.42,5.94,62.86,29.13,74.82,40.47,39.26,37.24,49.08,82.83,55.06,110.59,4.62,21.44,17.06,83.31-11.29,152Z"/>
  <path class="cls-1" d="m671.58,1592.57c11.36,27.51,30.21,73.19,78.11,96.21,10.32,4.96,42.91,20.03,82.33,10.16,41.43-10.37,63.25-41.08,69.7-50.17,9.94-13.98,14.89-27.09,22.71-47.75,4.07-10.75,9.89-27.96,15.14-53.07,5.76-27.52,12.61-60.31,9.93-98.47-2.38-33.84-5.28-74.99-35.56-110.56-26.69-31.35-73.62-57.17-123.76-49.41-38.42,5.94-62.86,29.13-74.82,40.47-39.26,37.24-49.08,82.83-55.06,110.59-4.62,21.44-17.06,83.31,11.29,152Z"/>
  <ellipse class="cls-11" cx="1324.31" cy="1522.77" rx="109.27" ry="169.8"/>
  <ellipse class="cls-11" cx="830.96" cy="1522.77" rx="109.27" ry="169.8"/>
  <path class="cls-13" d="m1404.18,985.08c35.76,30.58,75.53,68.92,115.35,116.12,46.83,55.51,81.86,109.21,107.86,155.38,45.18-109.18,90.35-218.35,135.53-327.53-60-185.56-120-371.12-180.01-556.68-52.47,63.54-104.94,127.08-157.41,190.62-16.86,47.18-34.44,111.56-40.52,189.33-7.58,97.01,5.62,177.75,19.19,232.76Z"/>
  <path class="cls-11" d="m1607.81,1223.97c-58.7-78.97-129.92-148.6-216.15-196.58,0,0-7.64-4.24-7.64-4.24,0,0-2.12-8.91-2.12-8.91-19.29-80.52-26.02-164.39-19.15-246.96,5.3-64.45,18.68-128.22,39.81-189.35,0,0,1.01-2.92,1.01-2.92,0,0,1.88-2.77,1.88-2.77,57.96-85.58,123.58-181.49,182.09-266.63,8.86,27.59,29.1,90.16,38.16,118.32,49.76,154.47,106.79,336.27,155.36,491.71,0,0,2.3,7.34,2.3,7.34,0,0-2.77,6.66-2.77,6.66-44.62,108.55-91,216.57-149.78,318.43,6.71-28.85,14.88-57.11,23.32-85.27,25.42-84.25,56.16-166.61,88.3-248.45,0,0-.47,14-.47,14-52.27-154.42-112.6-334.78-163.34-489.12,0,0-22.92-70.01-22.92-70.01,0,0,44.25,6.39,44.25,6.39-19.17,28.17-57.74,84.15-76.99,112.2-19.23,28.06-58.05,83.99-77.38,111.94,0,0,2.89-5.69,2.89-5.69-11.71,32.67-21.11,66.17-28.21,100.16-5.41,25.49-9.26,51.3-11.93,77.22-1.29,12.41-2.18,26.47-2.89,39-2.96,65.24,2.3,130.89,16.13,194.77,0,0-9.76-13.16-9.76-13.16,39.4,22.92,75.79,51.1,106.82,84.52,39.36,42.29,71.2,92.39,89.19,147.41h0Z"/>
  <path class="cls-13" d="m760.23,985.08c-35.76,30.58-75.53,68.92-115.35,116.12-46.83,55.51-81.86,109.21-107.86,155.38-45.18-109.18-90.35-218.35-135.53-327.53,60-185.56,120-371.12,180.01-556.68,52.47,63.54,104.94,127.08,157.41,190.62,16.86,47.18,34.44,111.56,40.52,189.33,7.58,97.01-5.62,177.75-19.19,232.76Z"/>
  <path class="cls-11" d="m556.6,1223.97c17.99-55.02,49.84-105.13,89.19-147.41,31.02-33.42,67.42-61.59,106.82-84.51,0,0-9.76,13.16-9.76,13.16,13.83-63.87,19.1-129.53,16.13-194.77-.75-12.54-1.6-26.57-2.89-39-2.67-25.92-6.52-51.73-11.93-77.22-7.1-33.99-16.5-67.49-28.21-100.16,0,0,2.89,5.69,2.89,5.69-19.34-27.74-58.14-84.1-77.38-111.94-19.21-27.76-57.87-84.34-76.99-112.2,0,0,44.25-6.39,44.25-6.39,0,0-22.92,70.01-22.92,70.01-50.68,154.17-111.17,334.84-163.34,489.12,0,0-.47-14-.47-14,32.14,81.84,62.88,164.21,88.3,248.45,8.44,28.16,16.6,56.42,23.32,85.27-58.78-101.85-105.15-209.88-149.78-318.43,0,0-2.77-6.66-2.77-6.66,0,0,2.3-7.34,2.3-7.34,48.69-155.58,105.55-337.07,155.37-491.71,9.02-27.7,29.23-90.84,38.16-118.32,58.51,85.15,124.15,181.02,182.09,266.63,0,0,1.88,2.77,1.88,2.77,0,0,1.01,2.92,1.01,2.92,21.13,61.13,34.52,124.9,39.81,189.35,6.87,82.57.15,166.44-19.15,246.96,0,0-2.12,8.91-2.12,8.91,0,0-7.64,4.24-7.64,4.24-86.23,47.98-157.45,117.61-216.15,196.58h0Z"/>
  <circle class="cls-1" cx="1306.22" cy="1461.14" r="51.43"/>
  <circle class="cls-1" cx="859.18" cy="1461.14" r="51.43"/>
  <path class="cls-11" d="m1287.4,1690.87c-33.98-17.56-50.96-50.05-65.21-83.79-20.98-48.95-33.59-82.66-32.38-137.48.2-36.54,7.68-74.16,26.58-105.99,12.75-21.62,30.4-40.08,50.56-55.03,51-38.13,113.39-40.25,164.21-.44,32.6,25.24,56.39,60.85,69.21,99.71,10.52,32.59,11.57,67.45,8.14,101.03-2.45,29.86-6.66,60.5-18.87,88.3-1.67,4.11-3.86,8.44-5.78,12.44-9.43,18.66-19.63,37.3-33.94,52.96,0,0-3.11,3.37-3.11,3.37-1.46,1.39-4.32,4.22-5.78,5.6-1.57,1.35-4.51,3.93-6.08,5.27-3.07,2.24-6.04,4.77-9.29,6.75-40.57,26.26-95.25,29.57-138.24,7.29h0Zm6.05-11.05c53.95,29.95,122.58,13.15,153.98-40.57,6.59-10.73,11.7-22.11,16.51-33.78,4.26-10.15,7.96-20.67,10.46-31.38,5.36-21.64,5.89-44.03,6.12-66.38.81-40.19-3.62-75.23-22.74-110.53-18.87-35.59-47.11-71.15-87.77-81.13-34.53-8.6-70.05,5.38-97.45,27.92-12.13,9.88-23.24,21.49-31.8,34.69-22.3,33.69-28.36,76.64-27.91,116.77.34,24.97,5.53,49.37,13.58,73.09,3.62,10.7,7.55,21.69,11.45,32.32,11.62,31.71,24.96,61.6,55.59,78.98h0Z"/>
  <path class="cls-11" d="m861.34,1679.82c30.62-17.38,43.97-47.27,55.59-78.98,7.61-21.14,15.84-42.61,20.36-64.54,3.41-16.19,5.03-32.6,4.66-49.09-.38-42.8-9.3-87.97-37.18-121.16-39.74-46.9-106.48-75.16-158.66-30.12-20.72,18.13-34.29,42.57-46.21,67.17-8.68,17.55-14.75,35.97-17.66,55.49-3.5,21.39-3.37,44.13-3.43,65.98-.01,22.08,2.11,43.42,8.57,64.41,3.3,10.5,7.51,21.14,11.81,31.18,4.3,10,9.56,19.76,15.84,28.66,32.83,47.48,96.86,58.75,146.3,30.99h0Zm6.05,11.05c-42.89,22.5-97.87,19.46-138.03-7.58-26.63-17.76-43.17-46.31-56.3-74.6-12.44-25.67-18.7-54.37-20.83-82.59-3.58-38.83-4.96-78.77,7.36-116.45,14.54-43.25,40.62-87.88,80.31-112.51,47.83-29.81,104.17-21.32,147.94,11.45,20.16,14.95,37.81,33.41,50.56,55.03,21.32,35.76,27.7,78.3,26.54,119.23-.17,7.45-.52,15.23-1.36,22.62-3.46,36.13-17.04,68.93-30.98,101.61-14.24,33.72-31.25,66.26-65.21,83.79h0Z"/>
  <path class="cls-12" d="m1324.25,1649.23c-20.25.57-39.64-9.6-40.81-10.23-20.32-10.9-30.65-27-34.6-34,2.74,10,7.03,21.45,13.8,33.27,5.53,9.66,11.43,19.96,23.15,29.44,6.82,5.51,17,13.75,32.35,15.33,16.57,1.71,29.17-5.35,34.96-8.59,11.72-6.56,18.4-14.86,23.61-21.47,9.3-11.79,13.56-22.46,17.79-33.27,4.22-10.8,9.31-26.7,11.96-46.92-15.07,44.9-48.53,75.49-82.22,76.43Z"/>
  <path class="cls-12" d="m839.25,1649.23c20.25.57,39.64-9.6,40.81-10.23,20.32-10.9,30.65-27,34.6-34-2.74,10-7.03,21.45-13.8,33.27-5.53,9.66-11.43,19.96-23.15,29.44-6.82,5.51-17,13.75-32.35,15.33-16.57,1.71-29.17-5.35-34.96-8.59-11.72-6.56-18.4-14.86-23.61-21.47-9.3-11.79-13.56-22.46-17.79-33.27-4.22-10.8-9.31-26.7-11.96-46.92,15.07,44.9,48.53,75.49,82.22,76.43Z"/>
  <path class="cls-7" d="m1751.92,1616.06c-18.06-28.17-24.88-55.68-40.04-106.84-18.79-63.42-27.28-120.66-30.91-167.24,73.9-152.43,147.81-304.86,221.71-457.3-102.12-255.06-204.24-510.12-306.35-765.18-92.86,148.34-185.72,296.69-278.57,445.03-15.64,45.81-30.89,103.28-39.07,170.5-11.09,91.05-6.23,145.95,2.54,204.28-36.73-17.25-106.96-44.38-198.94-44.16h0c-.09,0-.18,0-.27,0-.09,0-.18,0-.27,0h0c-91.98-.22-162.21,26.91-198.94,44.16,8.77-58.33,13.63-113.23,2.54-204.28-8.19-67.22-23.43-124.69-39.07-170.5-92.86-148.34-185.72-296.69-278.57-445.03-102.12,255.06-204.24,510.12-306.35,765.18,73.9,152.43,147.81,304.86,221.71,457.3-3.63,46.57-12.12,103.82-30.91,167.24-15.16,51.16-21.98,78.67-40.04,106.84-20.12,31.38-43.44,52.67-60.41,65.92,17.94,27.99,44.65,67.14,80.47,111.18,50.17,61.67,154.81,187.81,332.47,283.76,67.67,36.55,175.44,84.65,318.79,108.41,141.75-24.17,248.52-71.92,315.96-108.41,177.89-96.24,282.62-222.49,332.47-283.76,35.82-44.03,62.53-83.18,80.47-111.18-16.97-13.25-40.29-34.54-60.41-65.92Z"/>
  <path id="nariz" class="cls-15" d="m1117.57,1733.44c-6.08-1.32-18.07-4.26-33.4-4.13-15.33-.12-27.32,2.81-33.4,4.13-36.77,7.99-60.71,27.98-70.93,37.64v17.17c9.09,16.58,18.92,28.52,26.17,36.29,11.6,12.43,22.34,23.91,40.49,30.91,15.16,5.86,28.42,5.86,37.67,5.86s22.51,0,37.67-5.86c18.15-7.01,28.89-18.48,40.49-30.91,7.25-7.77,17.08-19.71,26.17-36.29v-17.17c-10.22-9.66-34.16-29.65-70.93-37.64Z"/>
  <ellipse class="cls-4" cx="1354.47" cy="1681.24" rx="143.2" ry="183.27" transform="translate(-70.78 59.56) rotate(-2.46)"/>
  <ellipse class="cls-4" cx="813.87" cy="1681.24" rx="183.27" ry="143.2" transform="translate(-900.7 2422.34) rotate(-87.54)"/>
  <rect class="cls-2" x="1210.38" y="1619.36" width="306.54" height="60.61" transform="translate(900.45 -439.92) rotate(27.08)"/>
  <rect class="cls-2" x="1197.81" y="1715.3" width="283.1" height="60.61" transform="translate(941.46 -418.35) rotate(27.08)"/>
  <rect class="cls-2" x="667.52" y="1619.36" width="306.54" height="60.61" transform="translate(840.94 -192.8) rotate(27.08)"/>
  <rect class="cls-2" x="654.96" y="1715.3" width="283.1" height="60.61" transform="translate(881.95 -171.23) rotate(27.08)"/>
  <ellipse class="cls-10" cx="1354.47" cy="1681.24" rx="143.2" ry="183.27" transform="translate(-70.78 59.56) rotate(-2.46)"/>
  <ellipse class="cls-10" cx="813.87" cy="1681.24" rx="183.27" ry="143.2" transform="translate(-900.7 2422.34) rotate(-87.54)"/>
  <path class="cls-10" d="m950.1,1645.89c20.18-.03,40.36-.07,60.55-.1,14.32-27.57,42.95-44.87,73.95-44.67,30.62.19,58.75,17.44,72.89,44.67,18.6.03,37.2.07,55.8.1"/>
  <g id="Capa_52" data-name="Capa 52">
    <path class="cls-5" d="m1230.55,1907.33c-27.19,14.39-79.13,36.99-147.18,36.9-67.59-.09-119.18-22.53-146.33-36.9-.52,13.27-1.27,67,33.7,114.59,42.38,57.68,103.41,60.31,112.63,60.53,9.16-.17,70.92-2.48,113.59-60.65,34.84-47.5,34.12-101.11,33.6-114.47Z"/>
  </g>
  <g id="Capa_56" data-name="Capa 56">
    <path class="cls-14" d="m1179.84,1928.85c5.15,7.43,10.67,16.47,15.79,27.13,5.81,12.11,9.7,23.37,12.34,32.95,7.57-25.53,15.14-51.06,22.71-76.59-16.95,5.51-33.89,11.01-50.84,16.52"/>
    <path class="cls-14" d="m984.85,1928.85c-5.15,7.43-10.67,16.47-15.79,27.13-5.81,12.11-9.7,23.37-12.34,32.95-7.57-25.53-15.14-51.06-22.71-76.59,16.95,5.51,33.89,11.01,50.84,16.52"/>
  </g>
  <g id="Capa_53" data-name="Capa 53">
    <path class="cls-6" d="m1196.45,1957.52c-7.54-14.54-17.02-24.31-23.52-30.03-25.81,5.89-51.62,11.78-77.43,17.67h-23.63c-25.81-5.89-51.62-11.78-77.42-17.67-6.5,5.72-15.98,15.48-23.52,30.03-9.25,17.84-11.14,34.29-11.51,43.57,6.44,11.86,19.24,31.73,42.14,48.76,9.69,7.21,38.88,28.26,81.8,29.06v.02c.11,0,.22,0,.33,0,.11,0,.22,0,.33,0v-.02c42.92-.8,72.1-21.85,81.79-29.06,22.9-17.03,35.7-36.9,42.14-48.76-.37-9.28-2.26-25.73-11.51-43.57Z"/>
  </g>
  <g id="Capa_58" data-name="Capa 58">
    <path class="cls-3" d="m959,1917.92c.7,8.67,2.13,18.73,4.87,29.72,2.07,8.3,4.53,15.73,7.06,22.24,23.5,9.18,62.81,21.17,112.59,20.82,53.37-.38,94.86-14.77,118.59-25.06,1.76-9.51,3.17-20.02,3.88-31.41.33-5.33.49-10.47.51-15.4-24.16,10.45-67.37,25.48-123.13,25.41-56.52-.08-100.19-15.65-124.37-26.32Z"/>
  </g>
  <path class="cls-8" d="m1230.55,1907.33c-27.19,14.39-79.13,36.99-147.18,36.9-67.59-.09-119.18-22.53-146.33-36.9-.52,13.27-1.27,67,33.7,114.59,42.38,57.68,103.41,60.31,112.63,60.53,9.16-.17,70.92-2.48,113.59-60.65,34.84-47.5,34.12-101.11,33.6-114.47Z"/>
  <path class="cls-11" d="m1296.04,1189.6c6.39-17.59,20.8-31.58,37.63-39.38,9.75-4.45,20.48-6.71,31.21-6.8,36.54-.08,63.26,24.48,83.4,52.39,18.73,26.19,29.45,59.84,23.14,91.89,0,0-2.88.85-2.88.85-1.19-3.57-3.74-10.57-5.1-14.07-9.24-23.03-22.23-44.64-38.93-63.02-14.08-15.3-28.41-31.53-48.38-38.73-17.36-6.03-36.53-4.23-53.11,3.39-9.02,3.9-17.37,9.38-24.99,15.71,0,0-2-2.24-2-2.24h0Z"/>
  <path class="cls-11" d="m864.51,1192.48c-33.24-17.17-66.77-31.14-98.99-3.71-5.34,4.37-10.4,9.51-15.26,14.5-15.16,15.18-27.35,34.17-36.45,53.89-2.4,4.98-4.59,10.16-6.81,15.27-2.2,5.3-4.36,10.79-6.83,16.58l-2.99.2c-.98-11.4-.79-22.98.6-34.34,3.61-29.28,15.79-55.64,36.12-77.1,24.75-28.37,60.27-39.89,94.86-21.56,10.31,5.36,19.43,12.72,27.35,21.15,3.94,4.21,7.6,8.61,10.88,13.43l-2.47,1.7h0Z"/>
</svg>