<?xml version="1.0" encoding="UTF-8"?>
<svg xmlns="http://www.w3.org/2000/svg" viewBox="0 0 2160 2160">
  <defs>
    <style>
      .cls-1, .cls-2 {
        fill: #d3661c;
      }

      .cls-3, .cls-4, .cls-5 {
        fill: #fff;
      }

      .cls-6 {
        stroke: #1d1d1b;
      }

      .cls-6, .cls-2 {
        stroke-width: 40px;
      }

      .cls-6, .cls-2, .cls-7 {
        stroke-miterlimit: 10;
      }

      .cls-6, .cls-7 {
        fill: none;
      }

      .cls-4 {
        opacity: .5;
      }

      .cls-8 {
        fill: #1c1c1c;
      }

      .cls-9 {
        fill: #ff7a35;
      }

      .cls-10 {
        fill: #ffd69f;
      }

      .cls-5 {
        opacity: .25;
      }

      .cls-2 {
        stroke: #0a0a0a;
      }

      .cls-7 {
        stroke: #021411;
        stroke-width: 25px;
      }

      .cls-11 {
        fill: #1d1d1b;
      }
    </style>
  </defs>
  <g id="LOGO-COLOR-LETRAS">
    <g id="LOGO-2" data-name="LOGO">
      <path class="cls-2" d="m1569.2,1125.13c17.5,59.07,41.34,106.28,62.14,140.74-20.91,28.55-61.17,79.13-113.39,131.26-31.5,31.45-92.65,91.7-185.21,140.57-47.58,25.13-126.19,59.19-231.99,72.77-60.69-8.92-142.5-28.32-230.4-72.77-164.17-83.04-256.65-206.5-298.6-271.83,20.81-34.47,44.65-81.68,62.14-140.74,14-47.25,20.33-89.9,23.03-124.59l-173.69-239.12,203.54-610.01c92.24,88.09,143.23,175.1,175.72,234.86,35.05,64.48,84.71,139.92,93.76,246.43,3.78,44.44,1.09,81.66-2.05,107.19,38.9-8.59,88.96-16.07,147.36-16.07s108.45,7.48,147.36,16.07c-3.14-25.59-5.83-62.9-2.02-107.44,9.1-106.43,58.73-181.81,93.75-246.23,32.48-59.75,83.47-146.74,175.69-234.81l203.54,610.01-173.69,239.12c2.7,34.7,9.03,77.35,23.03,124.59Z"/>
      <path class="cls-10" d="m1495.04,1271.35c-68.95,21.87-83.89,61.96-151.7,71.28-30.4,4.18-37.46-2.49-104.64-8.89-59.49-5.66-108.05-5.58-139.39-4.67-31.34-.92-79.9-1-139.39,4.67-67.17,6.39-74.24,13.07-104.64,8.89-67.82-9.32-82.75-49.42-151.7-71.28-28.91-9.17-72.37-16.74-131.82-5.48,22.91,31.56,55.87,73.12,100.02,117.68,45.45,45.87,105.07,106.06,198.58,154.15,46.21,23.77,123.84,56.48,228.96,67.97,105.11-11.49,182.74-44.2,228.96-67.97,93.51-48.09,153.13-108.28,198.58-154.15,44.15-44.56,77.11-86.12,100.02-117.68-59.45-11.26-102.91-3.69-131.82,5.48Z"/>
      <path class="cls-6" d="m1569.2,1125.13c17.5,59.07,41.34,106.28,62.14,140.74-20.91,28.55-61.17,79.13-113.39,131.26-31.5,31.45-92.65,91.7-185.21,140.57-47.58,25.13-126.19,59.19-231.99,72.77-60.69-8.92-142.5-28.32-230.4-72.77-164.17-83.04-256.65-206.5-298.6-271.83,20.81-34.47,44.65-81.68,62.14-140.74,14-47.25,20.33-89.9,23.03-124.59l-173.69-239.12,203.54-610.01c92.24,88.09,143.23,175.1,175.72,234.86,35.05,64.48,84.71,139.92,93.76,246.43,3.78,44.44,1.09,81.66-2.05,107.19,38.9-8.59,88.96-16.07,147.36-16.07s108.45,7.48,147.36,16.07c-3.14-25.59-5.83-62.9-2.02-107.44,9.1-106.43,58.73-181.81,93.75-246.23,32.48-59.75,83.47-146.74,175.69-234.81l203.54,610.01-173.69,239.12c2.7,34.7,9.03,77.35,23.03,124.59Z"/>
      <path class="cls-3" d="m803.24,1201.78c5.81,15.48,10.6,18.8,17.53,34.84,6.21,14.37,3.57,14.29,7.93,21.07,7.79,12.09,19.43,17.34,29.11,21.7,7.39,3.33,23.15,10.21,44.39,8.44,7.37-.61,20.09-2.61,33.55-10.11,15.77-8.79,24.24-20.34,33.62-33.13,11.86-16.17,17.61-30.31,19.06-34,5.44-13.83,7.17-24.26,9.95-41.44,2.47-15.28,4.74-29.29,3.8-48.01-.73-14.61-3.14-26.63-5.27-35.02-1.74-11.8-6.78-34.25-23.71-56.04-6.85-8.82-21.33-26.95-47.41-36.04-6.27-2.18-21.27-7.17-40.39-4.67-29.79,3.9-48.05,22.79-53.27,28.6-11.7,12.32-28.68,33.92-37.46,64.79-1.23,4.33-6.01,21.87-5.85,45.53.14,21.71,4.38,39.42,9.28,56.66.49,2.15,2,8.47,5.12,16.81Z"/>
      <path class="cls-3" d="m1395.19,1207.77c-1.83,26.51-21.72,45.29-29.95,53.05-5.4,5.09-13.98,12.2-26.21,18.58-6.92,3.55-31.45,15.05-61.34,7.57-30.87-7.73-47.12-30.61-51.93-37.38-7.4-10.42-11.09-20.18-16.92-35.58-7.62-20.14-10.64-36.05-11.28-39.54-1.02-5.57-4.41-25.22-3.17-51.38.67-14.24,2.52-26.2,4.28-35.09,6.96-26.05,18.05-44.54,25.85-55.57,10.96-15.49,21.3-30.1,41.21-38.29,3.03-1.25,19.24-7.57,40.38-4.75,29.79,3.97,48.04,23.2,53.25,29.12,11.69,12.54,28.67,34.53,37.45,65.96,1.23,4.4,6.01,22.27,5.85,46.35-.13,20.95-10.21,31.68-9.28,57.68.45,12.59,2.36,11.01,1.79,19.27Z"/>
      <path class="cls-8" d="m1252.19,1282.36c-28.6-14.51-43.6-43.64-54.15-72.41-9.92-24.14-14.42-50.29-15.11-76.24-.63-13.18-.47-26.38,1.51-39.67,1.91-13.34,5.83-26.39,10.87-38.91,4.17-10.69,9.62-21.28,16.49-30.64,39.5-51.1,97.46-61.6,149.06-20.86,25.69,19.61,40.54,40.21,50,70.97,8.08,24.88,10.58,51.69,8.09,77.55-1.04,13.17-2.33,26.39-5.61,39.52-3.13,13.09-8.58,25.81-14.94,37.54-8.3,15.78-18.95,30.84-33.07,42.04-30.75,24.55-78.1,29.15-113.15,11.11h0Zm6.05-11.05c43.96,24.47,96.76,6.58,117.48-39.18,16.13-34.28,16.72-55.27,14.68-92.35-1.21-18.65-5.17-36.42-12.15-53.4-3.29-8.12-6.73-16.12-11.06-23.53-5.51-9.42-12.21-17.61-20.35-24.87-10.12-9.57-22-17.89-35.06-22.06-19.32-6.33-38.75-2.49-56.29,9.29-12.09,7.9-22.27,18.27-29.38,30.9-17.26,30.82-20.64,54.79-20.47,89.55-.13,19.95,3,39.63,9.16,58.54,7.77,26.25,18.39,53.2,43.45,67.13h0Z"/>
      <path class="cls-8" d="m938.61,1271.32c25.07-13.94,35.67-40.87,43.45-67.13,7.61-22.78,10.02-46.74,9-70.74-.27-19.34-3.02-38.69-10.35-56.6-5.72-13.71-12.36-27.3-22.75-37.98-33.34-33.51-74.5-36.35-106.96.12-11.01,11.76-17.92,26.16-23.93,40.97-1.25,3.03-3.09,7.72-4.34,10.86-6.22,15.72-9.82,32.14-11.31,49.09-1.23,15.38-2.51,31.68-1,46.92,1.06,11.51,4.01,22.56,8.02,33.52,3.81,10.98,8.79,21.61,15.74,30.83,24.72,33.05,69.07,40.22,104.44,20.13h0Zm6.05,11.05c-23.65,12.38-51.93,14.12-77.4,6.95-26.6-7.27-47.23-25.72-60.66-49.42-8.64-15.32-15.99-31.51-19.68-48.83-2.87-12.95-3.79-25.97-4.42-38.96-1.77-26.29.99-53.38,9.6-78.68,4.09-12.9,9.26-25.93,16.51-37.59,10.08-16.06,23.58-29.63,39.16-40.5,48.78-32.74,103.22-15.54,137.28,29.16,6.87,9.36,12.32,19.95,16.49,30.64,5.05,12.52,8.96,25.57,10.87,38.91,1.98,13.28,2.14,26.48,1.51,39.67-.69,25.94-5.19,52.1-15.11,76.24-10.55,28.76-25.56,57.92-54.15,72.41h0Z"/>
      <ellipse class="cls-8" cx="919.28" cy="1171.2" rx="74.41" ry="115.63"/>
      <ellipse class="cls-8" cx="1280.46" cy="1171.2" rx="74.41" ry="115.63"/>
      <path class="cls-11" d="m1165.11,1459.96c-12.01,8.55-25.69,14.93-40.03,18.72-7.21,1.95-14.58,4.67-22.2,3.84-7.78-.73-15.31-2.78-21.83-7.57,0,0,.16-1.49.16-1.49,3.78-1.75,7.35-2.82,10.85-3.76,6.86-1.72,13.49-3.11,20.52-2.81,3.44.11,6.94.3,10.38-.03,14.02-1.23,27.89-3.97,41.46-8.25,0,0,.67,1.34.67,1.34h0Z"/>
      <path class="cls-11" d="m1039.63,1458.61c13.59,4.29,27.47,7.03,41.51,8.26,3.45.33,6.95.14,10.39.03,7.04-.3,13.67,1.09,20.55,2.81,3.51.94,7.08,2,10.87,3.76l.16,1.49c-6.52,4.79-14.07,6.84-21.85,7.57-7.62.82-15.01-1.89-22.23-3.84-14.36-3.79-28.05-10.17-40.08-18.73,0,0,.67-1.34.67-1.34h0Z"/>
      <path class="cls-10" d="m1330.49,770.55c24.88,15.18,56.51,38,87.73,71.28,39.65,42.27,63.11,84.86,76.77,115.15,37.16-62.75,74.33-125.51,111.49-188.26-37.77-148.05-75.55-296.1-113.32-444.14-17.33,19.4-40.47,47.55-63.97,84.08-21.76,33.83-66.2,104.3-87.73,206.54-7.72,36.67-15.16,90.07-10.97,155.36Z"/>
      <path class="cls-10" d="m871.08,766.73c-24.88,15.18-56.51,38-87.73,71.28-39.65,42.27-63.11,84.86-76.77,115.15-37.16-62.75-74.33-125.51-111.49-188.26,37.77-148.05,75.55-296.1,113.32-444.14,17.33,19.4,40.47,47.55,63.97,84.08,21.76,33.83,66.2,104.3,87.73,206.54,7.72,36.67,15.16,90.07,10.97,155.36Z"/>
      <path class="cls-8" d="m1482.2,931.39c-28.02-37.05-58.38-71.28-94.17-100.68-22.91-18.94-47.52-35.88-73.71-49.9,0,0-.49-8.32-.49-8.32-7.95-129.1,25.06-247.53,91.86-357.64,15.79-26.85,33.23-52.87,52.24-77.58,11.66-15.36,29.78-36.23,42.18-51.14,40.18,155.24,81.88,322.77,120.37,478.96,0,0,1.49,6.02,1.49,6.02-10.13,16.59-20.43,33.12-30.96,49.46-28.69,44.19-58.32,87.88-91.65,128.76,3.25-8.24,6.75-16.34,10.32-24.4,17.85-40.12,37.81-79.2,58.75-117.76,8.38-15.38,16.94-30.65,25.66-45.82l-1.56,10.99-30.06-110.71c-29.09-107.3-60.69-225.55-88.56-332.54,0,0,31.27,7.06,31.27,7.06-25.38,30.47-48.41,62.79-68.61,96.93-20.55,34.27-39.12,68.95-53.55,106.04-29.19,73.49-42.48,152.83-39.47,231.9,0,0-7.49-12.19-7.49-12.19,16.74,9.83,32.88,20.72,47.88,33.02,44.39,36.45,80.41,84.76,98.29,139.52h0Z"/>
      <path class="cls-8" d="m718.7,931.39c17.88-54.77,53.9-103.07,98.29-139.52,15-12.3,31.14-23.18,47.88-33.02l-7.49,12.19c3.01-79.07-10.29-158.41-39.47-231.9-14.43-37.09-33-71.77-53.55-106.04-20.21-34.14-43.23-66.47-68.61-96.93,0,0,31.27-7.06,31.27-7.06-27.82,106.8-59.55,225.36-88.56,332.54,0,0-30.06,110.71-30.06,110.71l-1.56-10.99c8.72,15.17,17.28,30.45,25.66,45.82,20.93,38.56,40.9,77.64,58.75,117.76,3.57,8.06,7.07,16.16,10.32,24.4-33.33-40.89-62.96-84.58-91.65-128.76-10.53-16.34-20.84-32.87-30.96-49.46l1.49-6.02c38.55-156.31,80.15-323.58,120.37-478.96,12.62,14.97,30.51,35.98,42.18,51.14,19.01,24.71,36.45,50.73,52.24,77.58,66.81,110.13,99.81,228.54,91.86,357.64,0,0-.49,8.31-.49,8.31-26.2,14.02-50.81,30.96-73.71,49.9-35.8,29.4-66.15,63.62-94.17,100.68h0Z"/>
      <path class="cls-9" d="m1280.41,1249.93c-15.09.42-29.53-7.15-30.4-7.62-15.14-8.12-22.83-20.12-25.78-25.33,2.04,7.45,5.23,15.98,10.28,24.79,4.12,7.2,8.52,14.87,17.25,21.93,5.08,4.11,12.66,10.24,24.1,11.42,12.34,1.28,21.73-3.98,26.05-6.4,8.73-4.89,13.71-11.07,17.59-15.99,6.93-8.78,10.1-16.73,13.25-24.79,3.14-8.05,6.94-19.89,8.91-34.96-11.23,33.45-36.16,56.24-61.25,56.94Z"/>
      <path class="cls-9" d="m919.08,1249.93c15.09.42,29.53-7.15,30.4-7.62,15.14-8.12,22.83-20.12,25.78-25.33-2.04,7.45-5.23,15.98-10.28,24.79-4.12,7.2-8.52,14.87-17.25,21.93-5.08,4.11-12.66,10.24-24.1,11.42-12.34,1.28-21.73-3.98-26.05-6.4-8.73-4.89-13.71-11.07-17.59-15.99-6.93-8.78-10.1-16.73-13.25-24.79-3.14-8.05-6.94-19.89-8.91-34.96,11.23,33.45,36.16,56.24,61.25,56.94Z"/>
      <path id="nariz" class="cls-11" d="m1126.43,1301.11c-4.53-.98-13.46-3.17-24.88-3.08-11.42-.09-20.35,2.09-24.88,3.08-27.39,5.95-45.23,20.84-52.84,28.04v12.79c6.77,12.35,14.1,21.25,19.5,27.04,8.64,9.26,16.65,17.81,30.16,23.03,11.29,4.36,21.17,4.36,28.07,4.36s16.77,0,28.07-4.36c13.52-5.22,21.52-13.77,30.16-23.03,5.4-5.79,12.73-14.69,19.5-27.04v-12.79c-7.62-7.2-25.45-22.09-52.84-28.04Z"/>
      <ellipse class="cls-5" cx="1316.19" cy="1275.32" rx="106.69" ry="136.54" transform="translate(-53.42 57.55) rotate(-2.46)"/>
      <ellipse class="cls-5" cx="900.17" cy="1275.32" rx="136.54" ry="106.69" transform="translate(-412.54 2120.03) rotate(-87.54)"/>
      <circle class="cls-3" cx="1265.37" cy="1116.76" r="24.33"/>
      <circle class="cls-3" cx="939.16" cy="1116.76" r="26.25"/>
      <rect class="cls-4" x="1195.57" y="1229.22" width="228.38" height="45.16" transform="translate(713.42 -459.01) rotate(27.08)"/>
      <rect class="cls-4" x="1186.21" y="1300.69" width="210.92" height="45.16" transform="translate(743.98 -442.94) rotate(27.08)"/>
      <rect class="cls-4" x="791.14" y="1229.22" width="228.38" height="45.16" transform="translate(669.09 -274.9) rotate(27.08)"/>
      <rect class="cls-4" x="781.78" y="1300.69" width="210.92" height="45.16" transform="translate(699.64 -258.83) rotate(27.08)"/>
      <ellipse class="cls-7" cx="1302.93" cy="1275.32" rx="106.69" ry="136.54" transform="translate(-53.43 56.98) rotate(-2.46)"/>
      <ellipse class="cls-7" cx="900.17" cy="1275.32" rx="136.54" ry="106.69" transform="translate(-412.54 2120.03) rotate(-87.54)"/>
      <path class="cls-7" d="m1001.66,1248.98c15.04-.02,30.07-.05,45.11-.07,10.67-20.54,32-33.43,55.09-33.28,22.81.15,43.77,12.99,54.31,33.28,13.86.02,27.72.05,41.58.07"/>
    </g>
  </g>
  <g id="FUENTES">
    <g>
      <path class="cls-11" d="m436.29,1829.8h-29.21v-32.63c16.92-1.99,30.28-10.06,40.09-24.2,9.81-14.14,15.71-33.72,17.7-58.75h43.07v80.18h52.88v35.4h-52.88v114.08c0,8.39,1.39,14.61,4.16,18.66,2.77,4.05,6.93,6.08,12.47,6.08,6.96,0,11.76-2.95,14.39-8.85,2.63-5.9,3.94-18.37,3.94-37.42v-19.19h35.4v30.71c0,25.59-5.86,44.57-17.59,56.93-11.73,12.37-29.75,18.55-54.06,18.55s-43.36-6.15-54.16-18.45c-10.81-12.29-16.21-33.51-16.21-63.65v-97.45Z"/>
      <path class="cls-11" d="m648.99,1856.46v-2.56c0-10.95-1.25-17.56-3.73-19.83-2.49-2.27-7.78-3.41-15.89-3.41h-14.07v-36.25h107.47v150.33c0,8.67,1.24,14.25,3.73,16.74,2.49,2.49,7.78,3.73,15.89,3.73h10.88v35.4h-137.97v-35.4h13.22c8.39,0,13.89-1.24,16.53-3.73,2.63-2.49,3.94-8.07,3.94-16.74v-88.28Zm-3.63-115.36c0-9.95,3.55-18.45,10.66-25.48,7.11-7.04,15.64-10.56,25.59-10.56s18.66,3.52,25.7,10.56c7.04,7.04,10.56,15.53,10.56,25.48s-3.52,18.66-10.56,25.7c-7.04,7.04-15.6,10.56-25.7,10.56s-18.84-3.45-25.8-10.34c-6.97-6.89-10.45-15.53-10.45-25.91Z"/>
      <path class="cls-11" d="m776.4,2000.61v-35.4h11.73c8.39,0,13.93-1.31,16.63-3.94,2.7-2.63,4.05-8.14,4.05-16.53v-94.46c0-8.39-1.35-13.89-4.05-16.53-2.7-2.63-8.25-3.94-16.63-3.94h-11.73v-35.4h101.71v31.99c8.81-12.37,19.4-21.71,31.77-28.04,12.37-6.32,26.09-9.49,41.16-9.49,25.02,0,42.72,5.65,53.1,16.95,10.38,11.3,15.57,31.1,15.57,59.39v79.54c0,8.39,1.31,13.9,3.94,16.53,2.63,2.63,8.14,3.94,16.53,3.94h10.02v35.4h-128.37v-35.4h4.9c8.24,0,13.72-1.31,16.42-3.94,2.7-2.63,4.05-8.14,4.05-16.53v-79.54c0-12.37-2.53-21.64-7.57-27.83-5.05-6.18-12.62-9.28-22.71-9.28-11.23,0-19.9,4.02-26.02,12.05-6.11,8.03-9.17,19.58-9.17,34.65v69.94c0,8.39,1.31,13.9,3.94,16.53,2.63,2.63,8.14,3.94,16.53,3.94h4.26v35.4h-130.08Z"/>
      <path class="cls-11" d="m1101.69,1829.8h-29.21v-32.63c16.92-1.99,30.28-10.06,40.09-24.2,9.81-14.14,15.71-33.72,17.7-58.75h43.07v80.18h52.88v35.4h-52.88v114.08c0,8.39,1.39,14.61,4.16,18.66,2.77,4.05,6.93,6.08,12.47,6.08,6.96,0,11.76-2.95,14.39-8.85,2.63-5.9,3.94-18.37,3.94-37.42v-19.19h35.4v30.71c0,25.59-5.86,44.57-17.59,56.93-11.73,12.37-29.75,18.55-54.06,18.55s-43.36-6.15-54.16-18.45c-10.81-12.29-16.21-33.51-16.21-63.65v-97.45Z"/>
      <path class="cls-11" d="m1421.01,1976.51c-9.24,10.81-19.8,18.84-31.67,24.1-11.87,5.26-25.2,7.89-39.98,7.89-20.19,0-36.25-5.37-48.19-16.1-11.94-10.73-17.91-25.06-17.91-42.97,0-16.63,4.83-29.39,14.5-38.28,9.67-8.88,29.78-16.6,60.35-23.14,25.87-5.54,42.08-10.98,48.62-16.31,6.54-5.33,9.81-13.18,9.81-23.56s-3.98-17.95-11.94-23.99c-7.96-6.04-18.69-9.06-32.2-9.06-7.39,0-13.72.68-18.98,2.03-5.26,1.35-9.95,3.52-14.07,6.5,7.68.57,13.86,3.13,18.55,7.68,4.69,4.55,7.04,10.17,7.04,16.85,0,8.25-3.2,15.03-9.6,20.36-6.4,5.33-14.64,8-24.74,8-11.37,0-20.51-3.06-27.4-9.17-6.9-6.11-10.34-14.07-10.34-23.88,0-17.77,8.71-31.59,26.12-41.47,17.41-9.88,41.76-14.82,73.03-14.82,15.35,0,29.28,1.39,41.79,4.16,12.51,2.77,22.32,6.58,29.43,11.41,8.24,5.69,14.04,12.05,17.38,19.08,3.34,7.04,5.01,18.87,5.01,35.5v85.3c0,6.68.89,11.62,2.67,14.82,1.78,3.2,4.65,4.8,8.64,4.8s6.79-1.49,8.42-4.48c1.63-2.99,2.45-8.03,2.45-15.14v-17.91h26.23v20.04c0,22.04-4.83,38.17-14.5,48.41-9.67,10.24-24.95,15.35-45.85,15.35-13.65,0-24.92-2.7-33.8-8.1-8.89-5.4-15.18-13.36-18.87-23.88Zm-5.76-77.62c-5.54,2.85-13.08,6.54-22.6,11.09-22.75,11.09-34.12,21.47-34.12,31.13,0,6.97,2.42,12.58,7.25,16.85,4.83,4.26,11.16,6.4,18.98,6.4,9.52,0,16.99-3.06,22.39-9.17,5.4-6.11,8.1-14.71,8.1-25.8v-30.49Z"/>
      <path class="cls-11" d="m1593.41,2002.74h-30.92v-76.77h34.54c5.12,14.07,13.29,25.02,24.52,32.84,11.23,7.82,24.31,11.73,39.24,11.73,10.24,0,18.09-1.67,23.56-5.01,5.47-3.34,8.21-8.07,8.21-14.18,0-4.69-1.81-8.39-5.44-11.09-3.63-2.7-12.83-6.04-27.61-10.02-2.42-.57-5.83-1.42-10.24-2.56-33.13-8.67-55.37-17.13-66.74-25.38-7.25-5.26-12.83-11.87-16.74-19.83-3.91-7.96-5.86-16.63-5.86-26.02,0-21.04,8.53-37.96,25.59-50.75,17.06-12.79,39.8-19.19,68.24-19.19,12.65,0,24.63,1.42,35.93,4.26,11.3,2.85,22.64,7.25,34.01,13.22l4.69-11.73h31.13v65.89h-31.13c-7.39-11.51-16.71-20.36-27.93-26.55-11.23-6.18-23.6-9.28-37.1-9.28-8.25,0-14.75,1.67-19.51,5.01-4.76,3.34-7.14,7.93-7.14,13.75,0,9.81,16.7,18.91,50.11,27.29,9.1,2.28,16.28,4.12,21.54,5.54,19.9,5.4,35.22,13.58,45.95,24.52,10.73,10.95,16.1,23.88,16.1,38.81,0,21.04-8.92,38.1-26.76,51.18-17.84,13.08-41.26,19.62-70.26,19.62-12.08,0-23.99-1.64-35.72-4.9-11.73-3.27-24.28-8.46-37.64-15.57l-6.61,15.14Z"/>
    </g>
    <circle class="cls-1" cx="1829.76" cy="1973.1" r="36.25"/>
  </g>
</svg>