<?xml version="1.0" encoding="UTF-8"?>
<svg id="LOGO-COLOR" xmlns="http://www.w3.org/2000/svg" viewBox="0 0 2160 2160">
  <defs>
    <style>
      .cls-1, .cls-2, .cls-3 {
        fill: #fff;
      }

      .cls-2 {
        opacity: .5;
      }

      .cls-4 {
        fill: #1c1c1c;
      }

      .cls-5 {
        fill: #ff7a35;
      }

      .cls-6 {
        fill: #ffd69f;
      }

      .cls-7 {
        stroke: #1d1d1b;
        stroke-width: 60px;
      }

      .cls-7, .cls-8, .cls-9 {
        stroke-miterlimit: 10;
      }

      .cls-7, .cls-9 {
        fill: none;
      }

      .cls-3 {
        opacity: .25;
      }

      .cls-8 {
        fill: #d3661c;
        stroke: #0a0a0a;
      }

      .cls-8, .cls-9 {
        stroke-width: 40px;
      }

      .cls-9 {
        stroke: #021411;
      }

      .cls-10 {
        fill: #1d1d1b;
      }
    </style>
  </defs>
  <path class="cls-8" d="m1710.47,1462.35c23.49,79.28,55.48,142.65,83.41,188.91-28.07,38.32-82.1,106.21-152.2,176.18-42.28,42.21-124.37,123.08-248.6,188.68-63.87,33.72-169.38,79.44-311.4,97.68-81.46-11.97-191.27-38.01-309.26-97.68-220.36-111.46-344.49-277.18-400.8-364.86,27.93-46.26,59.94-109.63,83.41-188.91,18.79-63.42,27.28-120.66,30.91-167.24l-233.14-320.96L526.01,155.36c123.81,118.24,192.25,235.03,235.86,315.24,47.05,86.55,113.7,187.81,125.85,330.77,5.07,59.66,1.46,109.61-2.76,143.88,52.22-11.53,119.41-21.57,197.8-21.57s145.57,10.04,197.8,21.57c-4.22-34.35-7.82-84.42-2.71-144.21,12.22-142.86,78.83-244.03,125.84-330.5,43.6-80.2,112.04-196.97,235.82-315.18l273.2,818.8-233.14,320.96c3.63,46.57,12.12,103.82,30.91,167.24Z"/>
  <g id="Capa_9" data-name="Capa 9">
    <path class="cls-6" d="m1610.93,1658.62c-92.55,29.35-112.6,83.16-203.63,95.68-40.8,5.61-50.29-3.34-140.45-11.93-79.85-7.6-145.03-7.49-187.1-6.26-42.07-1.23-107.25-1.34-187.1,6.26-90.17,8.58-99.65,17.54-140.45,11.93-91.03-12.52-111.08-66.33-203.63-95.68-38.8-12.3-97.14-22.47-176.94-7.35,30.76,42.36,74.99,98.15,134.25,157.96,61,61.56,141.03,142.36,266.54,206.91,62.03,31.9,166.23,75.81,307.32,91.23,141.09-15.42,245.29-59.33,307.32-91.23,125.51-64.55,205.54-145.34,266.54-206.91,59.26-59.81,103.5-115.6,134.25-157.96-79.8-15.11-138.14-4.95-176.94,7.35Z"/>
  </g>
  <path class="cls-7" d="m1710.47,1462.35c23.49,79.28,55.48,142.65,83.41,188.91-28.07,38.32-82.1,106.21-152.2,176.18-42.28,42.21-124.37,123.08-248.6,188.68-63.87,33.72-169.38,79.44-311.4,97.68-81.46-11.97-191.27-38.01-309.26-97.68-220.36-111.46-344.49-277.18-400.8-364.86,27.93-46.26,59.94-109.63,83.41-188.91,18.79-63.42,27.28-120.66,30.91-167.24l-233.14-320.96L526.01,155.36c123.81,118.24,192.25,235.03,235.86,315.24,47.05,86.55,113.7,187.81,125.85,330.77,5.07,59.66,1.46,109.61-2.76,143.88,52.22-11.53,119.41-21.57,197.8-21.57s145.57,10.04,197.8,21.57c-4.22-34.35-7.82-84.42-2.71-144.21,12.22-142.86,78.83-244.03,125.84-330.5,43.6-80.2,112.04-196.97,235.82-315.18l273.2,818.8-233.14,320.96c3.63,46.57,12.12,103.82,30.91,167.24Z"/>
  <g id="blancoOjos">
    <path class="cls-1" d="m682.34,1565.24c7.79,20.78,14.23,25.24,23.53,46.77,8.34,19.29,4.79,19.19,10.65,28.29,10.45,16.23,26.08,23.27,39.07,29.13,9.91,4.47,31.08,13.7,59.59,11.33,9.89-.82,26.97-3.5,45.03-13.56,21.17-11.8,32.54-27.3,45.13-44.46,15.92-21.7,23.63-40.68,25.58-45.64,7.31-18.56,9.62-32.56,13.36-55.63,3.32-20.51,6.36-39.31,5.11-64.44-.98-19.61-4.21-35.74-7.07-47.01-2.33-15.84-9.1-45.97-31.82-75.21-9.19-11.83-28.63-36.18-63.64-48.38-8.41-2.93-28.55-9.63-54.21-6.27-39.99,5.24-64.5,30.59-71.5,38.39-15.7,16.54-38.5,45.52-50.28,86.97-1.65,5.81-8.06,29.36-7.86,61.11.19,29.14,5.88,52.91,12.46,76.06.66,2.88,2.68,11.38,6.87,22.56Z"/>
    <path class="cls-1" d="m1476.9,1573.28c-2.46,35.58-29.16,60.79-40.2,71.2-7.24,6.84-18.77,16.38-35.19,24.94-9.29,4.76-42.21,20.2-82.33,10.16-41.43-10.37-63.25-41.08-69.7-50.17-9.94-13.98-14.89-27.09-22.71-47.75-10.23-27.04-14.28-48.39-15.14-53.07-1.37-7.47-5.92-33.86-4.26-68.97.91-19.11,3.38-35.17,5.75-47.1,9.35-34.97,24.22-59.79,34.7-74.59,14.71-20.79,28.59-40.4,55.32-51.39,4.07-1.67,25.82-10.17,54.2-6.38,39.98,5.33,64.48,31.14,71.48,39.08,15.7,16.83,38.49,46.34,50.27,88.53,1.65,5.91,8.06,29.89,7.86,62.21-.18,28.12-13.7,42.52-12.46,77.43.6,16.89,3.17,14.78,2.4,25.86Z"/>
  </g>
  <g id="bordeOjos">
    <path class="cls-4" d="m1285.99,1671.51c-37.83-19.17-57.19-58.19-70.86-96.29-6.16-16.13-11.3-32.82-14.31-49.85-3.22-17.03-4.33-34.34-4.92-51.54-.57-14.44-.43-29.16,1.21-43.62,1.98-17.71,6.3-35.22,12.73-51.88,5.23-13.91,11.34-27.75,19.64-40.3,10.02-15.59,23.34-28.94,38.11-40.02,43.92-33.75,97.92-35.02,144.12-4.88,10.39,6.54,20.16,14.5,29.09,22.62,13.95,12.37,26.23,27.36,35.12,43.81,5.79,10.55,10.32,21.92,14.17,33.24,5.88,17.01,10.12,34.78,12.21,52.62,2.88,23.59,1.69,46.77-.33,70.25-1.47,17.46-4.48,35.64-10.2,52.48-3.62,11.16-8.74,22.05-13.99,32.38-10.56,21-24.3,41-42.69,56-40.77,33.25-102.52,39.16-149.11,14.97h0Zm6.05-11.05c37,21,86.24,19.47,121.09-5,17.51-12.03,30.7-29.16,40.12-48.15,6.86-14.5,13.05-29.61,16.89-45.16,6.51-26.05,5.58-53.51,4.51-80.23-1.33-25.19-6.48-49.9-15.79-73.27-4.38-11.12-8.96-22.13-14.78-32.38-7.49-13.2-16.79-24.86-28.03-35.08-10.91-10.39-22.75-19.43-36.19-25.96-25.99-12.78-55.39-12.52-81,1.04-15.31,8.06-29.46,19.12-40.54,32.45-10.67,12.96-18.18,28.1-24.6,43.65-10.95,25.57-14.82,53.48-14.95,81.21-.28,16.29-.1,32.56,2.1,48.63,1.98,16.01,6.02,31.91,11.02,47.26,10.99,35.97,25.79,71.83,60.15,91.01h0Z"/>
    <path class="cls-4" d="m865.08,1660.46c34.34-19.15,49.18-55.05,60.15-91.01,4.99-15.35,9.05-31.25,11.02-47.26,2.81-21.37,2.52-43.34,1.54-64.87-1.24-22.93-5.99-45.71-15.14-66.77-6.27-14.93-13.59-29.38-23.85-41.84-7.95-9.69-17.51-17.84-27.88-24.9-45.27-30.92-92.79-21.1-128.87,18.38-15.71,16.17-25.97,36.22-34.22,57.02-4.78,11.94-9.65,24.33-12.88,36.82-5.4,20.31-7.72,40.99-8.43,62.14-1.41,26.51-.86,52.98,7.4,78.25,8.14,25.2,18.87,50,38.17,68.71,35.97,34.45,89.93,39.42,132.98,15.33h0Zm6.05,11.05c-31.18,16.46-68.63,18.98-102.26,9.28-41.81-11.75-69.74-42.72-87.53-81.14-4.95-10.37-9.73-21.2-13.05-32.31-5.22-16.72-7.84-34.55-8.92-51.82-.69-11.6-1.22-22.59-1.31-34.22-.28-29.03,4.44-58.87,14.07-86.63,5.54-16.91,12.42-33.89,22.04-49.11,13.28-20.76,30.95-38.39,51.24-52.44,45.74-31.07,100.32-28.64,144.12,4.88,12.29,9.24,23.62,20.01,32.82,32.39,10.85,14.51,18.7,31.11,24.93,47.92,7.5,19.43,12.09,39.96,13.54,60.7,1.32,17.38.56,34.49-.4,51.83-1.56,28.8-7.87,57.5-18.43,84.36-13.66,38.09-33.03,77.14-70.86,96.29h0Z"/>
  </g>
  <g id="negroOjos">
    <ellipse class="cls-4" cx="838.11" cy="1524.18" rx="99.88" ry="155.21"/>
    <ellipse class="cls-4" cx="1322.9" cy="1524.18" rx="99.88" ry="155.21"/>
  </g>
  <g id="boca">
    <path class="cls-10" d="m1167.11,1903.75c-16.22,10.68-34.51,18.5-53.42,23.16-9.54,2.37-19.27,5.33-29.23,4.59-10.06-.64-19.97-2.73-28.9-7.84,0,0,.16-1.49.16-1.49,4.96-1.63,9.7-2.6,14.38-3.5,9.25-1.65,18.24-3.09,27.59-3.05,4.61-.01,9.28.01,13.89-.53,18.76-2.02,37.01-6.32,54.86-12.68,0,0,.67,1.34.67,1.34h0Z"/>
    <path class="cls-10" d="m1000.37,1902.41c13.5,4.77,27.07,8.49,41.1,10.75,9.17,1.64,18.43,2.67,27.73,2.47,9.36-.05,18.37,1.4,27.63,3.04,4.69.89,9.44,1.87,14.4,3.49l.16,1.49c-12.76,7.13-29.51,9.59-43.75,6.74-9.66-2.16-19.24-4.52-28.63-7.57-13.81-4.72-27.2-11.08-39.32-19.08,0,0,.67-1.34.67-1.34h0Z"/>
  </g>
  <g id="interiorOreja">
    <path class="cls-6" d="m1390.06,986.41c33.4,20.38,75.85,51,117.76,95.68,53.22,56.74,84.72,113.91,103.04,154.56,49.88-84.23,99.77-168.46,149.65-252.69-50.7-198.72-101.4-397.44-152.11-596.16-23.26,26.04-54.32,63.83-85.87,112.85-29.21,45.4-88.86,139.99-117.76,277.23-10.36,49.22-20.35,120.9-14.72,208.53Z"/>
    <path class="cls-6" d="m773.41,981.28c-33.4,20.38-75.85,51-117.76,95.68-53.22,56.74-84.72,113.91-103.04,154.56-49.88-84.23-99.77-168.46-149.65-252.69,50.7-198.72,101.4-397.44,152.11-596.16,23.26,26.04,54.32,63.83,85.87,112.85,29.21,45.4,88.86,139.99,117.76,277.23,10.36,49.22,20.35,120.9,14.72,208.53Z"/>
  </g>
  <g id="lineaOreja">
    <path class="cls-4" d="m1593.68,1202.3c-45.02-59.22-95.36-113.29-155.4-157.11-22.37-16.55-45.98-31.52-70.48-44.66,0,0-.68-11.48-.68-11.48-9.59-146.9,23.31-296.15,92.74-425.95,16.27-30.78,33.74-60.88,52.42-90.17,30.41-48.31,68.65-94.82,105.75-138.29,14.71,57.01,35.61,138.79,50.17,196.08,35.82,141.08,76.59,306.32,111.59,448.24,0,0,2.05,8.31,2.05,8.31l-4.2,6.85c-49.48,80.08-101.3,159.23-160.95,232.27,17.5-43.91,38.12-86.51,59.41-128.63,21.35-41.96,43.88-83.22,67.27-123.97l-2.15,15.16c-13.48-49.58-47.6-175.02-60.49-222.9-32.19-119.15-67.78-252.57-98.9-372,0,0,43.21,9.76,43.21,9.76-51.35,61.16-94.45,129.11-131.17,199.9-42.35,82.39-70.5,172.06-81.08,264.13-4.65,39.53-6.12,79.41-4.71,119.19,0,0-10.33-16.81-10.33-16.81,22.48,13.2,44.14,27.85,64.31,44.38,59.58,49,107.93,113.96,131.61,187.69h0Z"/>
    <path class="cls-4" d="m568.88,1202.3c23.69-73.73,72.03-138.69,131.61-187.69,20.17-16.53,41.83-31.18,64.31-44.38,0,0-10.33,16.81-10.33,16.81,1.42-39.78-.06-79.66-4.71-119.19-10.58-92.08-38.73-181.75-81.08-264.13-36.72-70.8-79.82-138.75-131.17-199.9,0,0,43.21-9.76,43.21-9.76-31.11,119.46-66.73,252.83-98.9,372-12.77,47.37-47.18,174.01-60.49,222.9,0,0-2.15-15.16-2.15-15.16,23.38,40.75,45.92,82.01,67.27,123.97,21.29,42.12,41.91,84.71,59.41,128.63-59.65-73.04-111.47-152.19-160.95-232.27,0,0-4.2-6.85-4.2-6.85l2.05-8.31c35.13-142.1,75.71-306.98,111.59-448.24,14.63-57.22,35.43-139.04,50.17-196.08,37.19,43.57,75.3,89.95,105.75,138.29,18.67,29.28,36.15,59.38,52.42,90.16,69.43,129.8,102.33,279.06,92.74,425.95,0,0-.68,11.48-.68,11.48-24.51,13.13-48.11,28.11-70.48,44.66-60.04,43.82-110.37,97.88-155.4,157.11h0Z"/>
  </g>
  <g id="brilloOjos">
    <circle class="cls-1" cx="1302.65" cy="1451.12" r="32.65"/>
    <circle class="cls-1" cx="864.79" cy="1451.12" r="35.24"/>
  </g>
  <g id="pupilaOjos">
    <path class="cls-5" d="m1322.83,1629.87c-20.25.57-39.64-9.6-40.81-10.23-20.32-10.9-30.65-27-34.6-34,2.74,10,7.03,21.45,13.8,33.27,5.53,9.66,11.43,19.96,23.15,29.44,6.82,5.51,17,13.75,32.35,15.33,16.57,1.71,29.17-5.35,34.96-8.59,11.72-6.56,18.4-14.86,23.61-21.47,9.3-11.79,13.56-22.46,17.79-33.27,4.22-10.8,9.31-26.7,11.96-46.92-15.07,44.9-48.53,75.49-82.22,76.43Z"/>
    <path class="cls-5" d="m837.83,1629.87c20.25.57,39.64-9.6,40.81-10.23,20.32-10.9,30.65-27,34.6-34-2.74,10-7.03,21.45-13.8,33.27-5.53,9.66-11.43,19.96-23.15,29.44-6.82,5.51-17,13.75-32.35,15.33-16.57,1.71-29.17-5.35-34.96-8.59-11.72-6.56-18.4-14.86-23.61-21.47-9.3-11.79-13.56-22.46-17.79-33.27-4.22-10.8-9.31-26.7-11.96-46.92,15.07,44.9,48.53,75.49,82.22,76.43Z"/>
  </g>
  <path id="nariz" class="cls-10" d="m1116.15,1698.57c-6.08-1.32-18.07-4.26-33.4-4.13-15.33-.12-27.32,2.81-33.4,4.13-36.77,7.99-60.71,27.98-70.93,37.64v17.17c9.09,16.58,18.92,28.52,26.17,36.29,11.6,12.43,22.34,23.91,40.49,30.91,15.16,5.86,28.42,5.86,37.67,5.86s22.51,0,37.67-5.86c18.15-7.01,28.89-18.48,40.49-30.91,7.25-7.77,17.08-19.71,26.17-36.29v-17.17c-10.22-9.66-34.16-29.65-70.93-37.64Z"/>
  <g id="anteojos">
    <g id="vidrio">
      <ellipse class="cls-3" cx="1353.06" cy="1663.95" rx="143.2" ry="183.27" transform="translate(-70.04 59.49) rotate(-2.46)"/>
      <ellipse class="cls-3" cx="812.45" cy="1663.95" rx="183.27" ry="143.2" transform="translate(-884.77 2404.37) rotate(-87.54)"/>
    </g>
    <g id="brilloVidrio">
      <g id="Capa_21" data-name="Capa 21">
        <rect class="cls-2" x="1208.96" y="1602.07" width="306.54" height="60.61" transform="translate(892.42 -441.17) rotate(27.08)"/>
        <rect class="cls-2" x="1196.4" y="1698" width="283.1" height="60.61" transform="translate(933.43 -419.6) rotate(27.08)"/>
        <rect class="cls-2" x="666.1" y="1602.07" width="306.54" height="60.61" transform="translate(832.91 -194.05) rotate(27.08)"/>
        <rect class="cls-2" x="653.54" y="1698" width="283.1" height="60.61" transform="translate(873.92 -172.48) rotate(27.08)"/>
      </g>
    </g>
    <ellipse class="cls-9" cx="1353.06" cy="1663.95" rx="143.2" ry="183.27" transform="translate(-70.04 59.49) rotate(-2.46)"/>
    <ellipse class="cls-9" cx="812.45" cy="1663.95" rx="183.27" ry="143.2" transform="translate(-884.77 2404.37) rotate(-87.54)"/>
    <g id="Capa_18" data-name="Capa 18">
      <path class="cls-9" d="m948.68,1628.59c20.18-.03,40.36-.07,60.55-.1,14.32-27.57,42.95-44.87,73.95-44.67,30.62.19,58.75,17.44,72.89,44.67,18.6.03,37.2.07,55.8.1"/>
    </g>
  </g>
</svg>