<?xml version="1.0" encoding="UTF-8"?>
<svg xmlns="http://www.w3.org/2000/svg" viewBox="0 0 4619.34 2160">
  <defs>
    <style>
      .cls-1, .cls-2 {
        fill: #d3661c;
      }

      .cls-3, .cls-4, .cls-5 {
        fill: #fff;
      }

      .cls-4 {
        opacity: .5;
      }

      .cls-6 {
        fill: #1c1c1c;
      }

      .cls-7 {
        fill: #ff7a35;
      }

      .cls-8 {
        fill: #ffd69f;
      }

      .cls-9 {
        stroke: #1d1d1b;
        stroke-width: 60px;
      }

      .cls-9, .cls-2, .cls-10 {
        stroke-miterlimit: 10;
      }

      .cls-9, .cls-10 {
        fill: none;
      }

      .cls-5 {
        opacity: .25;
      }

      .cls-2 {
        stroke: #0a0a0a;
      }

      .cls-2, .cls-10 {
        stroke-width: 40px;
      }

      .cls-10 {
        stroke: #021411;
      }

      .cls-11 {
        fill: #1d1d1b;
      }
    </style>
  </defs>
  <g id="LOGO-COLOR-LETRAS">
    <g id="LOGO-2" data-name="LOGO">
      <path class="cls-2" d="m1784.11,1462.35c23.49,79.28,55.48,142.65,83.41,188.91-28.07,38.32-82.1,106.21-152.2,176.18-42.28,42.21-124.37,123.08-248.6,188.68-63.87,33.72-169.38,79.44-311.4,97.68-81.46-11.97-191.27-38.01-309.26-97.68-220.36-111.46-344.49-277.18-400.8-364.86,27.93-46.26,59.94-109.63,83.41-188.91,18.79-63.42,27.28-120.66,30.91-167.24l-233.14-320.96L599.66,155.36c123.81,118.24,192.25,235.03,235.86,315.24,47.05,86.55,113.7,187.81,125.85,330.77,5.07,59.66,1.46,109.61-2.76,143.88,52.22-11.53,119.41-21.57,197.8-21.57s145.57,10.04,197.8,21.57c-4.22-34.35-7.82-84.42-2.71-144.21,12.22-142.86,78.83-244.03,125.84-330.5,43.6-80.2,112.04-196.97,235.82-315.18l273.2,818.8-233.14,320.96c3.63,46.57,12.12,103.82,30.91,167.24Z"/>
      <path class="cls-8" d="m1684.57,1658.62c-92.55,29.35-112.6,83.16-203.63,95.68-40.8,5.61-50.29-3.34-140.45-11.93-79.85-7.6-145.03-7.49-187.1-6.26-42.07-1.23-107.25-1.34-187.1,6.26-90.17,8.58-99.65,17.54-140.45,11.93-91.03-12.52-111.08-66.33-203.63-95.68-38.8-12.3-97.14-22.47-176.94-7.35,30.76,42.36,74.99,98.15,134.25,157.96,61,61.56,141.03,142.36,266.54,206.91,62.03,31.9,166.23,75.81,307.32,91.23,141.09-15.42,245.29-59.33,307.32-91.23,125.51-64.55,205.54-145.34,266.54-206.91,59.26-59.81,103.5-115.6,134.25-157.96-79.8-15.11-138.14-4.95-176.94,7.35Z"/>
      <path class="cls-9" d="m1784.11,1462.35c23.49,79.28,55.48,142.65,83.41,188.91-28.07,38.32-82.1,106.21-152.2,176.18-42.28,42.21-124.37,123.08-248.6,188.68-63.87,33.72-169.38,79.44-311.4,97.68-81.46-11.97-191.27-38.01-309.26-97.68-220.36-111.46-344.49-277.18-400.8-364.86,27.93-46.26,59.94-109.63,83.41-188.91,18.79-63.42,27.28-120.66,30.91-167.24l-233.14-320.96L599.66,155.36c123.81,118.24,192.25,235.03,235.86,315.24,47.05,86.55,113.7,187.81,125.85,330.77,5.07,59.66,1.46,109.61-2.76,143.88,52.22-11.53,119.41-21.57,197.8-21.57s145.57,10.04,197.8,21.57c-4.22-34.35-7.82-84.42-2.71-144.21,12.22-142.86,78.83-244.03,125.84-330.5,43.6-80.2,112.04-196.97,235.82-315.18l273.2,818.8-233.14,320.96c3.63,46.57,12.12,103.82,30.91,167.24Z"/>
      <path class="cls-3" d="m755.99,1565.24c7.79,20.78,14.23,25.24,23.53,46.77,8.34,19.29,4.79,19.19,10.65,28.29,10.45,16.23,26.08,23.27,39.07,29.13,9.91,4.47,31.08,13.7,59.59,11.33,9.89-.82,26.97-3.5,45.03-13.56,21.17-11.8,32.54-27.3,45.13-44.46,15.92-21.7,23.63-40.68,25.58-45.64,7.31-18.56,9.62-32.56,13.36-55.63,3.32-20.51,6.36-39.31,5.11-64.44-.98-19.61-4.21-35.74-7.07-47.01-2.33-15.84-9.1-45.97-31.82-75.21-9.19-11.83-28.63-36.18-63.64-48.38-8.41-2.93-28.55-9.63-54.21-6.27-39.99,5.24-64.5,30.59-71.5,38.39-15.7,16.54-38.5,45.52-50.28,86.97-1.65,5.81-8.06,29.36-7.86,61.11.19,29.14,5.88,52.91,12.46,76.06.66,2.88,2.68,11.38,6.87,22.56Z"/>
      <path class="cls-3" d="m1550.55,1573.28c-2.46,35.58-29.16,60.79-40.2,71.2-7.24,6.84-18.77,16.38-35.19,24.94-9.29,4.76-42.21,20.2-82.33,10.16-41.43-10.37-63.25-41.08-69.7-50.17-9.94-13.98-14.89-27.09-22.71-47.75-10.23-27.04-14.28-48.39-15.14-53.07-1.37-7.47-5.92-33.86-4.26-68.97.91-19.11,3.38-35.17,5.75-47.1,9.35-34.97,24.22-59.79,34.7-74.59,14.71-20.79,28.59-40.4,55.32-51.39,4.07-1.67,25.82-10.17,54.2-6.38,39.98,5.33,64.48,31.14,71.48,39.08,15.7,16.83,38.49,46.34,50.27,88.53,1.65,5.91,8.06,29.89,7.86,62.21-.18,28.12-13.7,42.52-12.46,77.43.6,16.89,3.17,14.78,2.4,25.86Z"/>
      <path class="cls-6" d="m1359.64,1671.51c-37.83-19.17-57.19-58.19-70.86-96.29-6.16-16.13-11.3-32.82-14.31-49.85-3.22-17.03-4.33-34.34-4.92-51.54-.57-14.44-.43-29.16,1.21-43.62,1.98-17.71,6.3-35.22,12.73-51.88,5.23-13.91,11.34-27.75,19.64-40.3,10.02-15.59,23.34-28.94,38.11-40.02,43.92-33.75,97.92-35.02,144.12-4.88,10.39,6.54,20.16,14.5,29.09,22.62,13.95,12.37,26.23,27.36,35.12,43.81,5.79,10.54,10.32,21.92,14.17,33.24,5.88,17.01,10.12,34.78,12.21,52.62,2.88,23.59,1.69,46.77-.33,70.25-1.47,17.46-4.48,35.64-10.2,52.48-3.62,11.16-8.74,22.05-13.99,32.38-10.56,21-24.3,41-42.7,56-40.77,33.25-102.52,39.16-149.11,14.97h0Zm6.05-11.05c37,21,86.24,19.47,121.09-5,17.51-12.03,30.7-29.16,40.12-48.15,6.86-14.5,13.05-29.61,16.89-45.16,6.51-26.05,5.58-53.51,4.51-80.23-1.33-25.19-6.48-49.9-15.79-73.27-4.38-11.12-8.96-22.13-14.78-32.38-7.49-13.2-16.79-24.86-28.03-35.08-10.91-10.4-22.75-19.43-36.19-25.96-25.99-12.78-55.39-12.52-81,1.04-15.31,8.06-29.46,19.12-40.54,32.45-10.67,12.96-18.18,28.1-24.6,43.65-10.95,25.57-14.82,53.48-14.95,81.21-.28,16.29-.1,32.56,2.1,48.63,1.98,16.01,6.02,31.91,11.02,47.26,10.99,35.97,25.79,71.84,60.15,91.01h0Z"/>
      <path class="cls-6" d="m938.73,1660.46c34.34-19.15,49.18-55.05,60.15-91.01,4.99-15.35,9.05-31.25,11.02-47.26,2.81-21.37,2.52-43.34,1.54-64.87-1.24-22.93-5.99-45.71-15.14-66.77-6.27-14.93-13.59-29.38-23.85-41.84-7.95-9.69-17.51-17.84-27.88-24.9-45.27-30.92-92.78-21.1-128.87,18.38-15.71,16.17-25.97,36.22-34.22,57.02-4.78,11.94-9.65,24.33-12.88,36.82-5.4,20.31-7.72,40.99-8.43,62.14-1.41,26.51-.86,52.98,7.4,78.25,8.14,25.2,18.87,50,38.17,68.71,35.97,34.45,89.93,39.42,132.98,15.33h0Zm6.05,11.05c-31.18,16.46-68.63,18.98-102.26,9.28-41.81-11.75-69.74-42.72-87.53-81.14-4.95-10.37-9.73-21.2-13.05-32.31-5.22-16.72-7.84-34.55-8.92-51.82-.69-11.6-1.22-22.59-1.31-34.22-.28-29.03,4.44-58.87,14.07-86.63,5.54-16.91,12.42-33.89,22.04-49.11,13.28-20.76,30.95-38.39,51.24-52.44,45.74-31.07,100.32-28.64,144.12,4.88,12.29,9.24,23.62,20.01,32.82,32.39,10.85,14.51,18.7,31.11,24.93,47.92,7.5,19.43,12.09,39.96,13.54,60.7,1.32,17.38.56,34.49-.4,51.83-1.56,28.8-7.87,57.5-18.43,84.36-13.66,38.09-33.03,77.14-70.86,96.29h0Z"/>
      <ellipse class="cls-6" cx="911.75" cy="1524.18" rx="99.88" ry="155.21"/>
      <ellipse class="cls-6" cx="1396.55" cy="1524.18" rx="99.88" ry="155.21"/>
      <path class="cls-11" d="m1240.75,1903.75c-16.22,10.68-34.51,18.5-53.42,23.16-9.54,2.37-19.27,5.33-29.23,4.59-10.06-.64-19.97-2.73-28.9-7.84,0,0,.16-1.49.16-1.49,4.96-1.63,9.7-2.6,14.38-3.5,9.25-1.65,18.24-3.09,27.59-3.05,4.61-.01,9.28.01,13.89-.53,18.76-2.02,37.01-6.32,54.86-12.68,0,0,.67,1.34.67,1.34h0Z"/>
      <path class="cls-11" d="m1074.02,1902.41c13.5,4.77,27.07,8.49,41.1,10.75,9.17,1.64,18.43,2.67,27.73,2.47,9.36-.05,18.37,1.4,27.63,3.04,4.69.89,9.44,1.87,14.4,3.49l.16,1.49c-12.76,7.13-29.51,9.59-43.75,6.74-9.66-2.16-19.24-4.52-28.63-7.57-13.81-4.72-27.2-11.08-39.32-19.08l.67-1.34h0Z"/>
      <path class="cls-8" d="m1463.71,986.41c33.4,20.38,75.85,51,117.76,95.68,53.22,56.74,84.72,113.91,103.04,154.56,49.88-84.23,99.77-168.46,149.65-252.69-50.7-198.72-101.4-397.44-152.11-596.16-23.26,26.04-54.32,63.83-85.87,112.85-29.21,45.4-88.86,139.99-117.76,277.23-10.36,49.22-20.35,120.9-14.72,208.53Z"/>
      <path class="cls-8" d="m847.05,981.28c-33.4,20.38-75.85,51-117.76,95.68-53.22,56.74-84.72,113.91-103.04,154.56-49.88-84.23-99.77-168.46-149.65-252.69,50.7-198.72,101.4-397.44,152.11-596.16,23.26,26.04,54.32,63.83,85.87,112.85,29.21,45.4,88.86,139.99,117.76,277.23,10.36,49.22,20.35,120.9,14.72,208.53Z"/>
      <path class="cls-6" d="m1667.33,1202.3c-45.02-59.22-95.36-113.29-155.4-157.11-22.37-16.55-45.98-31.52-70.48-44.66,0,0-.68-11.48-.68-11.48-9.59-146.9,23.31-296.15,92.74-425.95,16.27-30.78,33.74-60.88,52.42-90.17,30.41-48.31,68.65-94.82,105.75-138.29,14.71,57.01,35.61,138.79,50.17,196.08,35.82,141.08,76.59,306.32,111.59,448.24,0,0,2.05,8.31,2.05,8.31l-4.2,6.85c-49.48,80.08-101.3,159.23-160.95,232.27,17.5-43.91,38.12-86.51,59.41-128.63,21.35-41.96,43.88-83.22,67.27-123.97l-2.15,15.16c-13.48-49.58-47.6-175.02-60.49-222.9-32.19-119.15-67.78-252.57-98.9-372,0,0,43.21,9.76,43.21,9.76-51.35,61.16-94.45,129.11-131.17,199.9-42.35,82.39-70.5,172.06-81.08,264.13-4.65,39.53-6.12,79.41-4.71,119.19,0,0-10.33-16.81-10.33-16.81,22.48,13.2,44.14,27.85,64.31,44.38,59.58,49,107.93,113.96,131.61,187.69h0Z"/>
      <path class="cls-6" d="m642.52,1202.3c23.69-73.73,72.03-138.69,131.61-187.69,20.17-16.53,41.83-31.18,64.31-44.38,0,0-10.33,16.81-10.33,16.81,1.42-39.78-.06-79.66-4.71-119.19-10.58-92.08-38.73-181.75-81.08-264.13-36.72-70.8-79.82-138.75-131.17-199.9,0,0,43.21-9.76,43.21-9.76-31.11,119.46-66.73,252.83-98.9,372-12.77,47.37-47.18,174.01-60.49,222.9,0,0-2.15-15.16-2.15-15.16,23.38,40.75,45.92,82.01,67.27,123.97,21.29,42.12,41.91,84.71,59.41,128.63-59.65-73.04-111.47-152.19-160.95-232.27,0,0-4.2-6.85-4.2-6.85l2.05-8.31c35.13-142.1,75.7-306.98,111.59-448.24,14.63-57.22,35.43-139.04,50.17-196.08,37.19,43.57,75.3,89.95,105.75,138.29,18.67,29.28,36.15,59.38,52.42,90.16,69.43,129.8,102.33,279.06,92.74,425.95,0,0-.68,11.48-.68,11.48-24.51,13.13-48.11,28.11-70.48,44.66-60.04,43.82-110.37,97.88-155.4,157.11h0Z"/>
      <path class="cls-7" d="m1396.48,1629.87c-20.25.57-39.64-9.6-40.81-10.23-20.32-10.9-30.65-27-34.6-34,2.74,10,7.03,21.45,13.8,33.27,5.53,9.66,11.43,19.96,23.15,29.44,6.82,5.51,17,13.75,32.35,15.33,16.57,1.71,29.17-5.35,34.96-8.59,11.72-6.56,18.4-14.86,23.61-21.47,9.3-11.79,13.56-22.46,17.79-33.27,4.22-10.8,9.31-26.7,11.96-46.92-15.07,44.9-48.53,75.49-82.22,76.43Z"/>
      <path class="cls-7" d="m911.48,1629.87c20.25.57,39.64-9.6,40.81-10.23,20.32-10.9,30.65-27,34.6-34-2.74,10-7.03,21.45-13.8,33.27-5.53,9.66-11.43,19.96-23.15,29.44-6.82,5.51-17,13.75-32.35,15.33-16.57,1.71-29.17-5.35-34.96-8.59-11.72-6.56-18.4-14.86-23.61-21.47-9.3-11.79-13.56-22.46-17.79-33.27-4.22-10.8-9.31-26.7-11.96-46.92,15.07,44.9,48.53,75.49,82.22,76.43Z"/>
      <path id="nariz" class="cls-11" d="m1189.8,1698.57c-6.08-1.32-18.07-4.26-33.4-4.13-15.33-.12-27.32,2.81-33.4,4.13-36.77,7.99-60.71,27.98-70.93,37.64v17.17c9.09,16.58,18.92,28.52,26.17,36.29,11.6,12.43,22.34,23.91,40.49,30.91,15.16,5.86,28.42,5.86,37.67,5.86s22.51,0,37.67-5.86c18.15-7.01,28.89-18.48,40.49-30.91,7.25-7.77,17.08-19.71,26.17-36.29v-17.17c-10.22-9.66-34.16-29.65-70.93-37.64Z"/>
      <ellipse class="cls-5" cx="1444.51" cy="1663.95" rx="143.2" ry="183.27" transform="translate(-69.95 63.41) rotate(-2.46)"/>
      <ellipse class="cls-5" cx="886.1" cy="1663.95" rx="183.27" ry="143.2" transform="translate(-814.28 2477.95) rotate(-87.54)"/>
      <circle class="cls-3" cx="1376.3" cy="1451.12" r="32.65"/>
      <circle class="cls-3" cx="938.44" cy="1451.12" r="35.24"/>
      <rect class="cls-4" x="1282.61" y="1602.07" width="306.54" height="60.61" transform="translate(900.49 -474.7) rotate(27.08)"/>
      <rect class="cls-4" x="1270.05" y="1698" width="283.1" height="60.61" transform="translate(941.5 -453.13) rotate(27.08)"/>
      <rect class="cls-4" x="739.75" y="1602.07" width="306.54" height="60.61" transform="translate(840.98 -227.58) rotate(27.08)"/>
      <rect class="cls-4" x="727.19" y="1698" width="283.1" height="60.61" transform="translate(881.99 -206.01) rotate(27.08)"/>
      <ellipse class="cls-10" cx="1426.71" cy="1663.95" rx="143.2" ry="183.27" transform="translate(-69.97 62.64) rotate(-2.46)"/>
      <ellipse class="cls-10" cx="886.1" cy="1663.95" rx="183.27" ry="143.2" transform="translate(-814.28 2477.95) rotate(-87.54)"/>
      <path class="cls-10" d="m1022.33,1628.59c20.18-.03,40.36-.07,60.55-.1,14.32-27.57,42.95-44.87,73.95-44.67,30.62.19,58.75,17.44,72.89,44.67,18.6.03,37.2.07,55.8.1"/>
    </g>
  </g>
  <g id="FUENTES">
    <g>
      <path class="cls-11" d="m2200.2,1272.21h-46.83v-52.29c27.11-3.19,48.54-16.12,64.26-38.79,15.72-22.67,25.18-54.06,28.37-94.17h69.04v128.52h84.77v56.74h-84.77v182.86c0,13.45,2.22,23.41,6.67,29.91s11.11,9.74,20,9.74c11.16,0,18.85-4.73,23.07-14.18,4.21-9.45,6.32-29.45,6.32-59.99v-30.76h56.74v49.22c0,41.02-9.4,71.44-28.2,91.26s-47.68,29.74-86.65,29.74-69.5-9.86-86.82-29.57c-17.32-19.71-25.98-53.72-25.98-102.03v-156.2Z"/>
      <path class="cls-11" d="m2541.13,1314.93v-4.1c0-17.54-2-28.14-5.98-31.79-3.99-3.64-12.48-5.47-25.46-5.47h-22.56v-58.11h172.27v240.97c0,13.9,1.99,22.85,5.98,26.83,3.98,3.99,12.48,5.98,25.46,5.98h17.43v56.74h-221.14v-56.74h21.19c13.44,0,22.27-1.99,26.49-5.98,4.21-3.98,6.32-12.93,6.32-26.83v-141.5Zm-5.81-184.91c0-15.95,5.69-29.57,17.09-40.84,11.39-11.28,25.06-16.92,41.02-16.92s29.91,5.64,41.19,16.92,16.92,24.9,16.92,40.84-5.64,29.91-16.92,41.19-25.01,16.92-41.19,16.92-30.2-5.52-41.36-16.58c-11.17-11.05-16.75-24.89-16.75-41.53Z"/>
      <path class="cls-11" d="m2745.35,1545.99v-56.74h18.8c13.44,0,22.33-2.1,26.66-6.32,4.33-4.21,6.49-13.04,6.49-26.49v-151.42c0-13.44-2.17-22.27-6.49-26.49-4.33-4.21-13.22-6.32-26.66-6.32h-18.8v-56.74h163.04v51.27c14.13-19.82,31.1-34.8,50.93-44.95,19.82-10.14,41.81-15.21,65.97-15.21,40.1,0,68.47,9.06,85.11,27.17,16.63,18.12,24.95,49.85,24.95,95.19v127.49c0,13.45,2.1,22.28,6.32,26.49,4.21,4.22,13.04,6.32,26.49,6.32h16.06v56.74h-205.76v-56.74h7.86c13.21,0,21.99-2.1,26.32-6.32,4.33-4.21,6.49-13.04,6.49-26.49v-127.49c0-19.82-4.05-34.69-12.13-44.6-8.09-9.91-20.22-14.87-36.4-14.87-18,0-31.9,6.44-41.7,19.31-9.8,12.88-14.7,31.39-14.7,55.54v112.11c0,13.45,2.1,22.28,6.32,26.49,4.21,4.22,13.04,6.32,26.49,6.32h6.84v56.74h-208.5Z"/>
      <path class="cls-11" d="m3266.75,1272.21h-46.83v-52.29c27.11-3.19,48.54-16.12,64.26-38.79,15.72-22.67,25.18-54.06,28.37-94.17h69.04v128.52h84.77v56.74h-84.77v182.86c0,13.45,2.22,23.41,6.67,29.91s11.11,9.74,20,9.74c11.16,0,18.85-4.73,23.07-14.18,4.21-9.45,6.32-29.45,6.32-59.99v-30.76h56.74v49.22c0,41.02-9.4,71.44-28.2,91.26s-47.68,29.74-86.65,29.74-69.5-9.86-86.82-29.57c-17.32-19.71-25.98-53.72-25.98-102.03v-156.2Z"/>
      <path class="cls-11" d="m3778.59,1507.36c-14.81,17.32-31.73,30.2-50.76,38.62-19.03,8.43-40.39,12.65-64.09,12.65-32.36,0-58.11-8.6-77.25-25.81s-28.71-40.16-28.71-68.87c0-26.66,7.74-47.11,23.24-61.35,15.49-14.24,47.73-26.6,96.73-37.08,41.47-8.89,67.45-17.6,77.93-26.15,10.48-8.54,15.72-21.13,15.72-37.77s-6.38-28.76-19.14-38.45c-12.76-9.68-29.97-14.53-51.61-14.53-11.85,0-21.99,1.08-30.42,3.25-8.43,2.17-15.95,5.64-22.56,10.42,12.3.91,22.22,5.01,29.74,12.3,7.52,7.3,11.28,16.29,11.28,27,0,13.22-5.13,24.1-15.38,32.64s-23.47,12.82-39.65,12.82c-18.23,0-32.87-4.9-43.92-14.7-11.05-9.79-16.58-22.56-16.58-38.28,0-28.48,13.96-50.64,41.87-66.48,27.91-15.83,66.93-23.75,117.07-23.75,24.61,0,46.94,2.22,66.99,6.67,20.05,4.44,35.77,10.54,47.17,18.29,13.21,9.12,22.5,19.31,27.86,30.59,5.35,11.28,8.03,30.25,8.03,56.91v136.72c0,10.71,1.42,18.63,4.27,23.75,2.85,5.13,7.46,7.69,13.84,7.69s10.88-2.39,13.5-7.18c2.62-4.79,3.93-12.87,3.93-24.27v-28.71h42.04v32.13c0,35.32-7.75,61.18-23.24,77.59-15.5,16.41-39.99,24.61-73.49,24.61-21.88,0-39.94-4.33-54.17-12.99-14.24-8.66-24.33-21.42-30.25-38.28Zm-9.23-124.41c-8.89,4.56-20.97,10.48-36.23,17.77-36.46,17.77-54.69,34.41-54.69,49.9,0,11.17,3.87,20.17,11.62,27,7.74,6.84,17.89,10.25,30.42,10.25,15.26,0,27.23-4.9,35.89-14.7,8.66-9.79,12.99-23.58,12.99-41.36v-48.88Z"/>
      <path class="cls-11" d="m4054.92,1549.4h-49.56v-123.05h55.37c8.2,22.56,21.3,40.11,39.31,52.64,18,12.53,38.96,18.8,62.89,18.8,16.41,0,28.99-2.68,37.77-8.03,8.77-5.35,13.16-12.93,13.16-22.73,0-7.52-2.91-13.44-8.72-17.77-5.81-4.33-20.57-9.68-44.26-16.06-3.88-.91-9.35-2.27-16.41-4.1-53.1-13.9-88.75-27.46-106.98-40.67-11.62-8.43-20.57-19.02-26.83-31.79-6.27-12.76-9.4-26.66-9.4-41.7,0-33.72,13.67-60.84,41.02-81.35s63.8-30.76,109.38-30.76c20.28,0,39.48,2.28,57.59,6.84,18.12,4.56,36.28,11.62,54.52,21.19l7.52-18.8h49.9v105.62h-49.9c-11.85-18.46-26.78-32.64-44.78-42.55-18-9.91-37.83-14.87-59.47-14.87-13.22,0-23.64,2.68-31.27,8.03-7.64,5.36-11.45,12.71-11.45,22.05,0,15.72,26.77,30.31,80.32,43.75,14.58,3.65,26.09,6.61,34.52,8.89,31.9,8.66,56.45,21.76,73.66,39.31,17.2,17.55,25.81,38.28,25.81,62.21,0,33.73-14.3,61.07-42.9,82.03-28.6,20.96-66.14,31.45-112.62,31.45-19.37,0-38.45-2.62-57.25-7.86s-38.91-13.55-60.33-24.95l-10.6,24.27Z"/>
    </g>
    <circle class="cls-1" cx="4433.77" cy="1501.89" r="58.11"/>
  </g>
</svg>