<?xml version="1.0" encoding="UTF-8"?>
<svg id="TRISTE" xmlns="http://www.w3.org/2000/svg" viewBox="0 0 2207.25 2160">
  <defs>
    <style>
      .cls-1, .cls-2, .cls-3 {
        fill: #fff;
      }

      .cls-2 {
        opacity: .5;
      }

      .cls-4 {
        fill: #1c1c1c;
      }

      .cls-5 {
        fill: #ff7a35;
      }

      .cls-6 {
        fill: #ffd69f;
      }

      .cls-7 {
        stroke: #1d1d1b;
        stroke-width: 60px;
      }

      .cls-7, .cls-8, .cls-9 {
        stroke-miterlimit: 10;
      }

      .cls-7, .cls-9 {
        fill: none;
      }

      .cls-3 {
        opacity: .25;
      }

      .cls-8 {
        fill: #d3661c;
        stroke: #0a0a0a;
      }

      .cls-8, .cls-9 {
        stroke-width: 40px;
      }

      .cls-9 {
        stroke: #021411;
      }

      .cls-10 {
        fill: #1d1d1b;
      }
    </style>
  </defs>
  <path class="cls-8" d="m1792.08,1433.29c23.49,79.28,55.48,142.65,83.41,188.91-28.07,38.32-82.1,106.21-152.2,176.18-42.28,42.21-124.37,123.08-248.6,188.68-63.87,33.72-169.38,79.44-311.4,97.68-81.46-11.97-191.27-38.01-309.26-97.68-220.36-111.46-344.49-277.18-400.8-364.86,27.93-46.26,59.94-109.63,83.41-188.91,18.79-63.42,27.28-120.66,30.91-167.24l-156.02-284.31c7.95-26.28,58.04-202.54-48.86-369.15-83.03-129.41-208.88-172.14-244.53-182.91,65.18-32.31,180.67-79.16,331.94-87.13,139.23-7.33,250.75,21.32,317.67,44.1,54.27,51.41,179.53,185.08,201.56,385.67,5.89,53.66,3.32,102.31-2.76,143.88,52.22-11.53,119.41-21.57,197.79-21.57s145.58,10.04,197.8,21.57c-4.22-34.35-7.82-84.42-2.71-144.21,12.22-142.86,78.83-244.03,125.84-330.5,43.6-80.2,112.04-196.97,235.82-315.18l273.21,818.8-233.14,320.96c3.63,46.57,12.12,103.82,30.91,167.24Z"/>
  <path class="cls-6" d="m1701.42,1629.56c-92.55,29.35-112.6,83.16-203.63,95.68-40.8,5.61-50.29-3.34-140.45-11.93-79.85-7.6-145.03-7.49-187.1-6.26-42.07-1.23-107.25-1.34-187.1,6.26-90.17,8.58-99.65,17.54-140.45,11.93-91.03-12.52-111.08-66.33-203.63-95.68-38.8-12.3-97.14-22.47-176.94-7.35,30.76,42.36,74.99,98.15,134.25,157.96,61,61.56,141.03,142.36,266.54,206.91,62.03,31.9,166.23,75.81,307.32,91.23,141.09-15.42,245.29-59.33,307.32-91.23,125.51-64.55,205.54-145.34,266.54-206.91,59.26-59.81,103.5-115.6,134.25-157.96-79.8-15.11-138.14-4.95-176.94,7.35Z"/>
  <path class="cls-1" d="m1567.39,1544.22c-6.32,19.78-14.94,47.37-40.2,71.2-7.24,6.84-18.77,16.38-35.19,24.94-9.28,4.76-42.21,20.2-82.33,10.16-41.43-10.37-63.25-41.08-69.7-50.17-9.94-13.98-14.89-27.09-22.71-47.75-10.23-27.04-14.28-48.39-15.14-53.07-1.37-7.47-5.92-33.86-4.26-68.97.91-19.11,3.38-35.17,5.75-47.1,3.46-17.47,11.06-46.81,34.7-74.59,20.61-24.23,44.85-36.51,60.56-42.67,27,15.26,54.01,30.53,81.01,45.79,27.8,15.08,55.6,30.16,83.4,45.23,9.46,33.02,12.96,61.82,14.15,83.7,1.53,27.96,3.08,62.19-10.05,103.29Z"/>
  <path class="cls-4" d="m1376.48,1641.94c-17.2-9.12-32.25-22.7-43.11-38.84-13.82-20.06-22.13-42.04-30.29-64.21-1.47-4.01-3.35-9.55-4.6-13.57-8.68-27.32-11.62-56.04-12.3-84.57-1.71-40.33,4.13-78.24,24.83-113.62,22.33-38.09,56.38-65.52,95.84-84.42,14.56,11.01,29.33,22.18,44.42,32.41,12.14,8.27,24.59,16.12,37.33,23.42,27.75,16.01,58.46,28.63,87.75,41.58,15.06,43.28,20.96,89.74,17.14,135.4-1,14.19-2.39,28.33-5.42,42.46-3.26,15.39-8.48,30.37-15.39,44.48-9.67,20.28-21.37,40.14-37.59,56.05-4.88,4.97-10.96,9.78-16.56,13.95-1.44.99-6.24,4.09-7.54,4.93-2.26,1.28-5.58,3.1-7.86,4.36-39.22,19.24-87.51,20.52-126.67.19h0Zm6.05-11.05c41.98,23.5,96.31,18.76,132.2-13.92,19.47-17.4,31.23-41.34,40.02-65.63,4.49-12.03,7.55-24.53,9.19-37.27,2.21-17.16,1.87-35,1.42-52.37-1.25-34.85-8.28-69.28-20.18-101.8,0,0,8.4,9.23,8.4,9.23-14.24-5.8-28.37-11.96-42.21-18.73-41.62-20.19-80.86-45.28-116.62-74.63,0,0,17.85,1.87,17.85,1.87-32.55,15.3-62.1,38.63-80.41,69.89-16.96,27.9-22.52,60.65-22.82,93.05-.86,28.94.84,58.14,9,86.05,12.01,40.62,25.27,82.26,64.14,104.26h0Z"/>
  <path class="cls-1" d="m771.06,1544.22c6.32,19.78,14.94,47.37,40.2,71.2,7.24,6.84,18.77,16.38,35.19,24.94,9.28,4.76,42.21,20.2,82.33,10.16,41.43-10.37,63.25-41.08,69.7-50.17,9.94-13.98,14.89-27.09,22.71-47.75,10.23-27.04,14.28-48.39,15.14-53.07,1.37-7.47,5.92-33.86,4.26-68.97-.91-19.11-3.38-35.17-5.75-47.1-3.46-17.47-11.06-46.81-34.7-74.59-20.61-24.23-44.85-36.51-60.56-42.67-27,15.26-54.01,30.53-81.01,45.79-27.8,15.08-55.6,30.16-83.4,45.23-9.46,33.02-12.96,61.82-14.15,83.7-1.53,27.96-3.08,62.19,10.05,103.29Z"/>
  <ellipse class="cls-4" cx="928.6" cy="1495.12" rx="99.88" ry="155.21"/>
  <ellipse class="cls-4" cx="1413.39" cy="1495.12" rx="99.88" ry="155.21"/>
  <path class="cls-10" d="m1069.59,1912.92c17.21-14.84,37.69-26.23,59.38-33.24,10.95-3.61,22.2-7.47,33.9-7.36,11.72,0,23.45,1.75,34.16,6.89,0,0-.14,1.49-.14,1.49-11.06,3.04-21.76,4.65-32.78,6.56-10.62,1.98-21.47,1.83-32.06,4.01-5.31,1.07-10.61,2.32-15.83,3.88-15.97,4.46-31.13,10.91-45.76,18.99,0,0-.86-1.23-.86-1.23h0Z"/>
  <path class="cls-10" d="m1274.14,1914.15c-14.63-8.08-29.79-14.53-45.77-18.99-10.41-3.08-21.1-5.26-31.92-5.94-10.86-.82-21.3-2.82-32.07-4.78-5.44-1.06-10.95-2.09-16.69-3.74l-.14-1.49c15.42-7.25,34.99-8.81,51.41-4.63,11.17,3.08,22.17,6.65,32.79,11.19,15.6,6.92,30.4,16.04,43.23,27.14,0,0-.86,1.23-.86,1.23h0Z"/>
  <path class="cls-6" d="m1513.27,968.29c19.21,12.35,40.18,28.07,61.13,48.03,56.61,53.96,86.29,113.44,101.92,153.85,54.32-67.29,108.64-134.59,162.96-201.88-51.29-190.35-102.59-380.71-153.88-571.06-40.31,36.08-105.1,104.03-148,208.43-66.89,162.77-37.55,309.4-24.14,362.63Z"/>
  <path class="cls-5" d="m1413.32,1600.81c-20.25.57-39.64-9.6-40.81-10.23-20.32-10.9-30.65-27-34.6-34,2.74,10,7.03,21.45,13.8,33.27,5.53,9.66,11.43,19.96,23.15,29.44,6.82,5.51,17,13.75,32.35,15.33,16.57,1.71,29.17-5.35,34.96-8.59,11.72-6.56,18.4-14.86,23.61-21.47,9.3-11.79,13.56-22.46,17.79-33.27,4.22-10.8,9.31-26.7,11.96-46.92-15.07,44.9-48.53,75.49-82.22,76.43Z"/>
  <path class="cls-5" d="m928.32,1600.81c20.25.57,39.64-9.6,40.81-10.23,20.32-10.9,30.65-27,34.6-34-2.74,10-7.03,21.45-13.8,33.27-5.53,9.66-11.43,19.96-23.15,29.44-6.82,5.51-17,13.75-32.35,15.33-16.57,1.71-29.17-5.35-34.96-8.59-11.72-6.56-18.4-14.86-23.61-21.47-9.3-11.79-13.56-22.46-17.79-33.27-4.22-10.8-9.31-26.7-11.96-46.92,15.07,44.9,48.53,75.49,82.22,76.43Z"/>
  <path class="cls-4" d="m960.56,1630.9c38.88-22.02,52.12-63.62,64.14-104.26,8.16-27.91,9.87-57.11,9-86.05-.3-33.71-6.28-67.02-24.44-95.77-18.45-29.93-47.2-52.26-78.77-67.23,0,0,17.79-1.87,17.79-1.87-24.02,19.34-49.59,36.68-75.73,53.01-19.66,12.21-39.49,24.35-60.09,34.99-6.91,3.49-13.85,6.92-20.95,10,0,0,11.14-12.24,11.14-12.24-8.02,24.3-14.51,49.19-17.72,74.63-1.71,12.78-2.49,25.87-2.92,38.78-1.3,26.67.49,53.41,9.81,78.55,6.67,19.29,14.99,38.23,28.26,53.81,6.76,8.11,14.74,15.31,23.7,20.97,0,0,2.67,1.76,2.67,1.76l2.79,1.56c33.63,19.75,77.79,18.45,111.31-.65h0Zm6.05,11.05c-48.28,25.33-112.67,18.27-152.81-19.04-22.7-21.03-36.95-49.34-47.75-77.87-9.69-26.7-11.64-55.34-12.46-83.42-1.04-39.61,5.03-79.5,16.98-117.47,22.21-10.35,43.88-21.89,65.05-34.17,34.88-20.23,68.54-42.88,100.6-67.35,11.7,6.06,23.89,12.29,34.65,19.9,26.62,18.3,49.77,42.46,64.8,71.21,17.76,32.59,22.91,70.49,21.23,107.03-.68,30.93-4.27,62.06-14.52,91.4-14.93,42.81-32.85,87.64-75.78,109.78h0Z"/>
  <path class="cls-4" d="m1660.27,1136.54c-37.15-64.02-92.27-117.44-157.84-151.44,0,0-6.8-4.45-6.8-4.45,0,0-1.83-7.77-1.83-7.77-50.84-211.2,13.18-440.2,166.8-593.94,0,0,24.04-24.34,24.04-24.34,0,0,9.41,32.9,9.41,32.9,0,0,164.47,575.29,164.47,575.29,0,0,2.36,11.75,2.36,11.75,0,0-6.05,6.34-6.05,6.34,0,0-171.54,179.73-171.54,179.73,0,0,140.48-204.93,140.48-204.93,0,0-3.7,18.1-3.7,18.1,0,0-164.47-575.29-164.47-575.29,0,0,33.45,8.56,33.45,8.56-53.03,53.66-95.85,117.45-125.35,186.9-29.46,69.48-45.46,144.54-46.8,220.02-.96,50.3,4.31,100.79,15.84,149.73,0,0-8.63-12.22-8.62-12.22,61.65,47.36,109.6,112.19,136.16,185.05h0Z"/>
  <path class="cls-6" d="m828.72,968.29c-19.21,12.35-40.18,28.07-61.13,48.03-56.61,53.96-86.29,113.44-101.92,153.85-39.85-65.65-79.69-131.29-119.54-196.94,11.08-41.51,33.11-146.47-7.59-269.17-34.29-103.35-96.14-168.19-127.94-197.42,43.79-3.66,106.25-3.99,178.63,12.16,63.57,14.19,114.31,36.53,150.37,55.81,24.03,39.25,52.79,95.81,71.83,168.11,24.56,93.21,22.69,173.54,17.3,225.57Z"/>
  <path class="cls-4" d="m681.72,1136.54c19.49-76.04,71.41-141.63,136.2-184.98,0,0-9.01,14.66-9.01,14.66,1.41-16.52,2.34-33.08,2.44-49.64,1.19-115.63-31.5-231.08-92.58-329.21,0,0,8.47,8.31,8.47,8.31-85.39-49.54-187.17-69.78-284.98-56.17,0,0,15.5-40.14,15.5-40.14,54.09,65.55,92.6,143.92,110.73,226.98,18.01,82.63,16.72,169.17-3.68,251.12,0,0-2.26-14.11-2.26-14.11,17.86,31.82,35.02,64.02,51.22,96.75,16.2,32.95,31.76,66.11,44.94,100.52-24.19-27.79-46.16-57.1-67.65-86.87-22.68-31.58-44.29-63.88-65.21-96.63,0,0,1.57-8.13,1.57-8.13,28.05-134.43,4.34-277.19-72.72-391.58-17.15-26.65-42.73-55.95-63.16-80.37,40.4-5.81,85.14-13.1,125.84-11.22,37.67.95,75.35,6.35,111.76,16.08,45.1,11.89,88.29,30.7,128.16,54.83,28.99,47.14,51.92,97.92,67.98,150.86,25.83,84.72,33.65,174.87,23.24,262.77,0,0-1.16,9.78-1.16,9.78,0,0-7.86,4.88-7.86,4.88-62.75,38.48-114.73,91.96-157.8,151.51h0Z"/>
  <circle class="cls-1" cx="1400.2" cy="1427.38" r="44.91"/>
  <circle class="cls-1" cx="947.85" cy="1427.38" r="44.91"/>
  <ellipse class="cls-3" cx="1443.55" cy="1634.89" rx="143.2" ry="183.27" transform="translate(-68.71 63.34) rotate(-2.46)"/>
  <ellipse class="cls-3" cx="902.94" cy="1634.89" rx="183.27" ry="143.2" transform="translate(-769.12 2466.97) rotate(-87.54)"/>
  <rect class="cls-2" x="1299.45" y="1573.01" width="306.54" height="60.61" transform="translate(889.11 -485.55) rotate(27.08)"/>
  <rect class="cls-2" x="1286.89" y="1668.94" width="283.1" height="60.61" transform="translate(930.12 -463.98) rotate(27.08)"/>
  <rect class="cls-2" x="756.6" y="1573.01" width="306.54" height="60.61" transform="translate(829.6 -238.43) rotate(27.08)"/>
  <rect class="cls-2" x="744.03" y="1668.94" width="283.1" height="60.61" transform="translate(870.61 -216.86) rotate(27.08)"/>
  <path id="nariz" class="cls-10" d="m1206.65,1669.51c-6.08-1.32-18.07-4.26-33.4-4.13-15.33-.12-27.32,2.81-33.4,4.13-36.77,7.99-60.71,27.98-70.93,37.64v17.17c9.09,16.58,18.92,28.52,26.17,36.29,11.6,12.43,22.34,23.91,40.49,30.91,15.16,5.86,28.42,5.86,37.67,5.86s22.51,0,37.67-5.86c18.15-7.01,28.89-18.48,40.49-30.91,7.25-7.77,17.08-19.71,26.17-36.29v-17.17c-10.22-9.66-34.16-29.65-70.93-37.64Z"/>
  <ellipse class="cls-9" cx="1443.55" cy="1634.89" rx="143.2" ry="183.27" transform="translate(-68.71 63.34) rotate(-2.46)"/>
  <ellipse class="cls-9" cx="902.94" cy="1634.89" rx="183.27" ry="143.2" transform="translate(-769.12 2466.96) rotate(-87.54)"/>
  <path class="cls-9" d="m1039.18,1599.53c20.18-.03,40.36-.07,60.55-.1,14.32-27.57,42.95-44.87,73.95-44.67,30.62.19,58.75,17.44,72.89,44.67,18.6.03,37.2.07,55.8.1"/>
  <path class="cls-4" d="m1424.73,1291.69c-25.71-27.54-45.25-61.6-55.56-97.52,14,23.48,31.55,43.85,52.43,60.86,6.81,5.53,13.89,10.62,21.19,15.26,0,0-18.06,21.39-18.06,21.39h0Z"/>
  <path class="cls-4" d="m901.39,1270.3c14.75-9.38,28.47-20.52,40.73-33.16,12.43-12.76,23.5-27.2,32.89-42.97-7.66,26.63-20.5,52.62-37.14,75.25-5.66,7.72-11.81,15.16-18.42,22.27,0,0-18.06-21.39-18.06-21.39h0Z"/>
  <path class="cls-7" d="m1792.08,1433.29c23.49,79.28,55.48,142.65,83.41,188.91-28.07,38.32-82.1,106.21-152.2,176.18-42.28,42.21-124.37,123.08-248.6,188.68-63.87,33.72-169.38,79.44-311.4,97.68-81.46-11.97-191.27-38.01-309.26-97.68-220.36-111.46-344.49-277.18-400.8-364.86,27.93-46.26,59.94-109.63,83.41-188.91,18.79-63.42,27.28-120.66,30.91-167.24-54.21-98.78-108.42-197.57-162.62-296.35,5.13-14.45,73.65-218.26-56.47-384-88.19-112.33-212.58-137.08-245.65-142.59,67.41-36.92,197.84-96.42,371.29-101.65,126.25-3.81,228.4,22.55,293.65,45.18,54.27,51.41,179.53,185.08,201.56,385.67,5.89,53.66,3.32,102.31-2.76,143.88,52.22-11.53,119.41-21.57,197.79-21.57s145.58,10.04,197.8,21.57c-4.22-34.35-7.82-84.42-2.71-144.21,12.22-142.86,78.83-244.03,125.84-330.5,43.6-80.2,112.04-196.97,235.82-315.18l273.21,818.8-233.14,320.96c3.63,46.57,12.12,103.82,30.91,167.24Z"/>
</svg>